<?xml version="1.0" encoding="UTF-8"?>
<svg id="Layer_1" data-name="Layer 1" xmlns="http://www.w3.org/2000/svg" viewBox="0 0 577.11 899.93">
  <defs>
    <style>
      .cls-1 {
        fill: #f5cea5;
      }

      .cls-2 {
        fill: #223650;
      }

      .cls-3 {
        fill: #fbeed7;
      }

      .cls-4 {
        fill: #f2f0e3;
      }

      .cls-5 {
        fill: #c3423f;
      }

      .cls-6 {
        fill: #fcefd9;
      }

      .cls-7 {
        fill: #db453e;
      }

      .cls-8 {
        fill: #f5cba1;
      }

      .cls-9 {
        fill: #edba8c;
      }

      .cls-10 {
        fill: #f2e1b6;
      }

      .cls-11 {
        fill: #f0b045;
      }

      .cls-12 {
        fill: #13192f;
      }

      .cls-13 {
        fill: #f7d4ab;
      }

      .cls-14 {
        fill: #0b1128;
      }

      .cls-15 {
        fill: #233750;
      }

      .cls-16 {
        fill: #16233c;
      }

      .cls-17 {
        fill: #16253c;
      }

      .cls-18 {
        fill: #c0413e;
      }

      .cls-19 {
        fill: #10172c;
      }

      .cls-20 {
        fill: #f6d2a9;
      }

      .cls-21 {
        fill: #c1423f;
      }
    </style>
  </defs>
  <path class="cls-17" d="M205.11,5.33c15.36-3.18,41.51-5.95,56.44-1.94,2.46.66,6.12,1.62,7.56,3.94,5.98,32.88,11.78,66.75,26,97l14.02,30c6.38-2.83,12.85-5.65,18.98-9l7.51-2.99c8.12-5.5,17.9-13.9,28.54-10.57,5.78,1.81,5.87,6.35,7.89,11.11l-.95,16.45c-.32.72-.64,1.31-1,2-2.83,5.4-9.08,13.99-13.53,18.02-.66.6-1.58.92-2.47,1-.55,1.81.78,1.64.99,1.98.88,1.41,2.04,2.63,3,4,10.83,15.34,19.92,31.19,28,48,.14.3.8.59,1,1l12,47c.07.65-.06,1.34,0,2-1.66,1.04-1,3.8-1.02,5.49-.09,7.12-.66,14.72,1.02,21.51.2.83-.15,2.06,0,3,.2.22,2.06-.97,2.99-1,.23,0,.54,1.27,2.9.52.41-.13,6.67-4.37,6.95-4.69.5-.56,0-1.66.15-1.83.31-.36.73-.66,1-1,3.28-.37,2.49-.25,3.28,2.18,3.09,9.38.81,16.85-1.57,26.04l-4.71,11.79c-2.63,3.93-4.92,6.85-8.53,9.97s-11.39,6.51-13.2,8.3c-1.31,1.3-7.32,16.36-9.46,20.04-3.96,6.82-9.18,12.83-13.77,19.21,22.8,12.04,41.44,27.09,55.97,48.49-.17,2.84,1.88,3.6,3,5s1.28,1.97,2,3c-.23,1.87,3.62,8.53,5,9,.33.11,1.54.07,2,0,2.01-.33,7.25-3.98,7-6,.35-.3.66-.68,1-1,2.3-.25,8.3-6.05,8.79-7.71,1.37-4.59.15-13.61,1.85-20.15,1.28-4.89,5.7-11.04,6.32-14.73.56-3.34-1.12-5.91-1-8.87.23-6.05,2.21-17.73,4.04-23.55.1-.3-.1-.7,0-1,2.09.46,2.62-1.64,3.41-3.05,1.24-2.2,3.28-5.47,3.59-7.95,3.77-4.94,5.24-6.18,10-10l6.4-2.1,1.49-1.55c-1.53-6.55-3.01-9.56.84-15.65l-31.48-153.45c-.68-5.36-.64-8.44,1.74-13.24.52-1.04,2.31-2.04,2-4,.33-.32.63-.72,1-1,11.02-4.82,23.79-2.44,26.01,11,.98.37,1.81-.98,1.99-1,.33-.03.67.02,1,0,.1,0,.62.87,1.96.61,13.63-2.61,32.91-13.68,45.04-4.61.32,7,6.68,21.15,4.8,27.31-1.56,5.14-15.6,4.46-18.81,7.18-4.19,3.54.81,4.28,1.01,4.51.41.48.57,1.59,1,2,3.06,2.95,13.37-4.11,19.22-.97,1.21.65,1.35,2.49,2.78,2.97-.13,9.46,6.54,17.74,2,27-12.68,6.39-28.49,7.23-42.3,11-1.26.2-.52,1.79-.7,2-.28.34-.93.75-1,1-.77,2.71-.21,4.16.3,7.21,1.75,10.63,10.95,60.84,14.7,66.79.2.32,1.29.8,2,2,3.34,5.64,1.26,7.38,2.08,10.39.44,1.6,2.52,1.27,2.92,1.61.12.1-.46,1.76.65,2.03,3.2.79,8.83.4,13.36,1.46,31.98,7.47,42.83,39.74,29.99,68.51-.12.28.13.72,0,1-2.23-.19-4.78,4.81-6,7-.33.59-.82,1.4-1,2-.04.14-.94.31-.83,1.28,7.05,14.57,4.39,30.46-4.17,43.72-1.21,1.41-1.67,1.81-3,3-5.35.69-6.07,5.48-11.96,4.08-.31.6.13,1.56-.04,1.92-4.08,8.62-11.57,11.28-17.93,17.64-.34,2.05,4.67,4.63,5.46,6.4,1.79,4.02-9.31,23.35-12.11,27.88-9.5,15.4-21.87,29.18-35.42,41.08l-.49-.98c-2.55,1.6-4.3,4.04-6.51,5.98-.35.31-.64.7-1,1l-16.84,9.16c.57,7.57-1.68,15.14-1.85,22.58-.02.82.68,1.19.68,1.26,0,.67-.02,1.33,0,2-1.68,1.32-1.06,4.86-1,7,0,.33,0,.67,0,1-1.63,1.05-1.04,4.14-1,6,0,.33,0,.67,0,1-1.68,5.89-4.88,14-3,20-1.78,8.25-6.12,28.74-10.56,34.94-.96,1.34-2.01,2.26-3.44,3.06-4.35-.64-9.39.97-13.69,1.86-1.83.38-3.9-.9-3.31,2.14-.32.06-.67-.03-1,0-.66.06-1.34-.07-2,0-.83,9.64-2.16,19.53-4,29.01-4.27,22.05-9.46,43.26-14,66-.1.41-1.19,1.53-1.53,2.93-5.54,22.54-10.14,45.53-15.42,68.05.58.26,1.69-.15,1.95.03.44.31.73.82,1,1,9.96,6.63,23.31,9.96,34.38,15.12l13.62,7.88c.91.76,1.29,1.3,2,2,6.56,9.35,8.42,14.42-3.98,17.52-16.91,4.23-46.54,2.21-64.02-.52-9.37-1.47-22.49-5.27-31.82-8.68l-12.18-2.32c-1.46-.65-3.44-2.18-5-2l-.99,10.01c-13.59-.06-27.54-.02-41.01-2.01-1.59-.23-3.23-.74-4.75-1.24l-1.25-4.25.09-143.08c.34-1.93-1.99-1.31-2.09-1.43-.19-.22.16-1.43,0-2l-1,.49c-1.52,1.13-1.38,3.23-2,4.51-10.95,22.57-20.73,45.57-32,68-.16.32-2.11,1.12-2.2,2.25l-34.81,72.24c-11.52,5.32-24.48,6.73-36.99,7.51-.02-1-.02-2,0-3,.31-.22,1.5.69,2.01-.67.37-.99,2.21-8.27-.51-7.34-14.76,8.08-30.97,14.09-47.46,17.55-15.55,3.26-36.81,5.25-52.53,4.46-4.14-.21-24.24-4.36-26.28-7.22-3.07-4.33,1.64-9.73,2.77-13.77.33-.34.66-.67,1-1,3.25-1.53,6.72-3.73,9.75-5.69,3.62-2.34,6.7-4.7,9.25-7.31.43-.44.65-1.59,1.6-1.85,7.67-5.05,18.43-9.52,25.4-15.15.22-.18,1.82.58,2.02-.66,3.48-22.32,9.07-44.3,13.98-66.34,3.95-17.7,8.6-35.21,12-53l8.94-37.58c.47-2.12-.61-1.26-1.94-1.42-.33-.04-.67.03-1,0v-2c-4.31,1.08-9.5-2.65-13,0-.37-.12-.71-.9-1-1-7.1-2.38-14.09-5.6-21.01-8.49l-1.99-7.51c.46-2.1,1.02-4.07,2-5.99-16.62-.23-47.59-19.47-41.23-38.74,2.8-8.48,8.74-6.18,12.01-8.49.4-.28,3.65-7.39,4.22-8.76-1.59-.23-3.11-1.19-4.33-2.18-19.35-15.82-40.85-39.14-49.67-62.83,1.97-.91.37-3.18.01-4.5-6.62-24.12-3.06-42.72,7.67-63.8.9-1.78,1.8-5.57,2.32-7.7.26-.37.74-.64,1-1,2.06-2.92,5.9-6.19,7-10,.3-.36.7-.65,1-1,2.89-.57,5.97-5.16,7-8,.67-.71,1.33-1.32,2-2h2s0-2,0-2c.34-.33.66-.67,1-1,3.7-.92,6.58-5.1,9-8,1.68-1.47,2.99-2.15,4-3l2-2c29.74-24.24,63.88-43.82,101-54.01l-14.15-22.84c-18.16-.09-31.78-7.72-40.85-23.16,2.01-.6,0-2.99-.49-4.01-5.01-10.57-6.78-19.5-5.4-31.38.48-4.15,3.2-8.28,3.67-11.3.12-.75-.77-1.18-.78-1.31-.03-.35.09-.77,0-1-.9-2.32-.05-2.46-4-3-.77-2.07-3.23-2.16-5-3-1.36-1.2-1.81-1.65-3-3-2.36-5.37-6.21-9.79-7.73-15.77-3.78-14.89.13-31.95,7.17-45.29,1.97-3.73,5.88-6.44,6.56-10.94l1-1c2.35.32,4.31-3.82,5-6,2.49-2.6,3.86-4.71,7-7,1.27,1.53,2.12-.61,2-2,.25-.13.7.12,1,0,.43-.18,1.38.15,2,0,1.53-2.05-5.52-16.51-7.02-19.27-1.9-3.49-6.02-8.16-7.98-10.74-.23-.31-.68-.59-1-1-1.61-5.99-6.1-10.27-9.97-14.75-3.59-4.16-3.46-4.4-8.03-8.25-.36-.3-.65-.69-1-1-1.2-3.55-4.4-6.09-8-7-.71-.68-1.32-1.29-2-2,.34-2.55-2.61-2.56-3.34-4.23-2.93-6.71,5.46-13.84,7.34-19.77.28-.37.72-.64,1-1,1.4-.49,2.02-1.52,2-3,.3-.36.7-.65,1-1,2.98-.77,5.14-4.08,6-7,.67-.63,1.31-1.34,2-2,4.66-4.44,7.48-7.17,12-12,1.05-1.12,2.11-2.05,3-3l23.22-18.34c1.3-1,3.13-1.17,4.43-2.02,24.89-16.25,55.02-31.35,85.35-37.64ZM294.11,135.33c-6.42-12.41-13.67-24.54-18.11-37.88-38.43.56-77.52,13.91-110.91,32.36-14.24,7.87-34.61,21.64-44.98,34.02-.94,1.12-2.43,1.63-1.99,3.5,17.92-10.16,37.48-20.4,57.99-24,5.73-1.01,11.32-.88,17-2,.67,0,1.33,0,2,0,4.32.04,8.68-.1,13,0,.33,0,.67,0,1,0,2.33.07,4.67-.08,7,0,.33.01.67-.01,1,0,4.84.17,9.45.84,14,1,1,.04,2-.04,3,0,13.64.56,26.61,1.26,40.32-.1,2.93-.29,21.51-2.48,21.66-4.39-.38-.94-1.61-1.79-1.98-2.5ZM208.11,172.33c-1.24.29-3.35,1.56-5,2-16.07,4.31-27.82,8.76-42,17-.78.45-2.71.38-4.75,1.74-19.53,13.11-35.6,34.72-33.76,59.25,6.63-4.92,12.83-8.33,18.48-14.52s9.69-16.82,18.03-19.47c-1.1,8.91-2.65,16.59-8,24-4.65,6.44-12.72,13.76-19.99,17.02-.26,2.65-.05,1.62,1.49,1.96,4.36.98,7.81.97,11,4.85,1.15-.17,1.73-1.31,2.5-1.83,7.98-5.43,13.71-15.19,21-21.51l1.99,1.05c-1.6,13.38-8.18,25.06-18.85,33.14l.86,9.32c-.39.26-.76.92-1,1-2.68.2-5.73-.36-7-3-16.14-20.74-43.91-9.97-41.98,16.49,1.48,20.32,16.45,38.65,38.24,35.27,4.23-.66,4.5-2.38,6.74-3.76,3.2-1.96,5.23-5.22,9.87-3.87,3.21,5.88-2.45,11.02-5.71,15.52,15.8,29.98,45.27,52.63,77.85,61.85,10.1,2.86,26.15,6.39,36.47,6.55,1.11.02,2.79.55,2.52-1.03-5.08-.57-18.06-11.46-18.75-15.69-.17-1.06.54-1.61.76-2.32,3.19-1.14,4.02,1.45,5,2,.68.39,1.8.87,2,1,.91.61,2.15,1.49,3,2,21.28,12.69,46.36,16.33,68,2,2.71-1.79,5.39-4.03,8-6,16.64-12.59,28.56-26.76,37.99-45.51-8.76.07-17.47,3.4-25.98-.5-.96,3.68-1.5,8.82-5.01,11.01-.27.17-1.54-.33-1.9.08-.5.57.16,2.33-.1,2.92-.17.38-.83.67-1,1-3.86.26-5.28,4.85-7.29,6.71-1.3,1.2-5.85,2.14-5.71,5.29h-1c-8.16,2.72-14.62,5.67-23.54,5.03-7.32-.52-12.64-4.19-19.46-6.03-.37-.29-.64-.72-1-1-1.89-1.49-5.01-3.98-6.59-5.37-2-1.75-3.56-5.16-6.41-5.63-.14-.26.14-.74,0-1-.17-.32.33-1.46-.12-1.9s-1.71.06-1.88-.1c-.33-.31-.73-.84-1-1-.17-.1-.32-1.16-.99-1.56-.72-.43-.95.56-1.01.56-.66-.02-1.35.08-2,0l-36-12c-6.63-4.3-13.63-9.33-18-16l-5-17.49c.02-2.98-.88-11.3,2.68-12.4,7.81.89,15.12,4.94,22.95,5.77,24.52,2.6,39.11-14.31,62.38-15.88.31.34.77.57,1,1,.19.36-.16,1.41.02,2.02l.98-1.02c13.09,6.45,31.19,9.4,44.33,1.83,16.77-9.67,10.41-23.8-4-31.65-2.72-1.48-16.51-6.25-17.14-7.34-1.81-3.13,2.22-6.47,5.26-6.88,16.61-2.25,39.6,15.95,37.61,34,6.42.38,12.31,4.19,17.95,7.05,3.07,1.55,7.73,5.32,11,6,.6.12,2.12.35,2.01-.57-.25-7.64.29-15.34-.01-22.98-.08-1.92,1.03-4.01-2-3.45-.03-.33.03-.67,0-1s.03-.67,0-1c1.89-1.4.78-4.81,1-7.01h-2c-2.82-19.02-8.93-41.04-18.83-57.66-2.5-4.2-6.59-11.44-11.73-12.27-17.51-2.84-17.46,18.91-26.95,19.03-11.04.15,1.76-20.06,5.46-23.64,4.25-4.1,11.13-6.92,17.04-6.46,1.14-.97-3.57-5.11-4.46-6.02-2.35-2.4-7.83-7.09-10.53-8.97-2.39-2.66-10.11-8.94-13.36-8.68-36.69,14.54-77.58,6.48-114.64,18.68ZM495.12,323.34l13.76-3.46-31.03-152.78c-2.81-8.53-12.84-7.46-13.41,1.56l30.68,154.67ZM515.45,209c-4.51-4.37-5.67-14.6-2.2-20.02s11.25-4.01,16.16-5.83c2.98-1.1.03-11.85-.98-14.62-.39-1.08-.64-2.75-1.9-3.06-4.55,1.38-35.64,7.54-36.15,10.32l11.81,56.49,37.88-7.96-1.97-14.97c-7.55.93-15.97,6.14-22.66-.33ZM387.11,305.33l-30.6-14.97-2.31.06c.05,4.4-4.64,3.91-5.09,7.91-.31.14-.63.87-1,1-.71.26-2.64-.3-3,0-.25.21.23,1.72,0,2-.57.69-1.56.68-2,1-15.45,5.51-30.33,7.41-46.22,1.72l-6.78-2.72c-1.4-1.13-1.94-1.21-3-3-.28-.48-.51-4.39-3.93-1.88-.36.27.11,1.59-.07,1.88-.86,1.39-1.08.72-2,1-14.35,4.3-25.36,12.33-41.51,13.99-8.08.83-15.8-.69-23.49.01-.31.03-1.76-1.39-1.99-1,1.63,18.74,24.6,28.53,40.99,32-.59,2.69,1.35,2.02,3.13,2.31,6.65,1.09,14.6.95,21.41.69,1.93-.08,4.01,1.03,3.45-2,13.93-1.76,21.42-5.69,33-13l5.26-2c5.33-7.39,10.42-.13,15.71,2.54,20.36,10.28,42.98,8.49,59.08-8.02,5.64-5.79,9.9-11.87,9.96-19.51,0-.92.73-2.07,1.01-2.99-.64-.13-1.47.14-2.01,0-.18-.05-.49-.83-1.3-.75-4.24.43-11.15,2.93-15.7,3.75-.33-.03-.67.04-1,0ZM407.61,300.33v1c.65-.33.65-.67,0-1ZM514.06,331.37l-18.94,2.98,2.89,12.32c-.55,1.76-8.71,4.34-11.22,5.85-12.18,7.33-18.22,22.05-18.67,35.82,3.58-3.87,11.15-5.99,14.5-8.99,2.39-2.13,3.5-6.11,5.49-8.51,8.38-10.14,24.13-16.48,37.23-15.22,21.88,2.11,34.74,24.02,17.83,41.23l12.31,8.41c16.58-16.19,11.48-47.19-9.38-57.41-9.9-4.85-19.28-3.36-29.93-3.57l-2.1-12.92ZM329.11,358.34c-16.7,5.81-32.34,3.61-49-1,13.05,16.93,35.18,17.24,49,1ZM502.11,374.33c4.79-1.66,9.3,6.29,11.7,6.85,2.97.69,8.12-2.19,13.88.08,3.99,1.57,6.22,8.49,9.28,4.43,6.13-8.16-1.98-17.11-10.44-18.26-6.68-.9-16.99,1.73-22.99,4.82-1.05.54-1.88-.52-1.43,2.09ZM160.11,383.33c-36.74,10.41-72.97,28.64-102.45,53.05-50.3,41.65-63.06,86.46-16.06,137.97,9.24,10.13,19.89,19.02,30.93,27.03,17.44-9.98,35.21-24.67,47.55-40.57,1.89-2.44,5.98-7.14,6.13-9.98.21-3.8-9.6-16.09-12.59-19.5-3.66-4.18-10.83-11.34-15.04-14.96-2.76-2.38-16.75-11.28-17.27-12.2s-.39-3.02.23-3.89c15.62-4.62,27.27,10.22,38.93,18.01,10.38-9.33,21.13-18.26,31.68-27.39,2.98-2.58,3.23-7.2,9.52-3.61,1.95,5.98-.95,11.15-4.13,16-6.96,10.65-19.38,18.17-28.29,26.71,12.25,23.25,34.13,43.86,28.41,72.41-5.28,26.35-27.97,48.37-52.58,57.42-1.91.7-10.77,2.26-11.03,3.08l.23,3.28c56.53,20.07,133.25-.09,151.79-62.46-7.07-21.25-14.49-42.87-24.77-63.07-11.83-23.25-27.39-44.18-40.21-66.79-2.88-5.07-11.48-18.24-9.45-23.46s13.49-6.87,13.46-14.05c-4.44-.85-19.62-2.07-21.51-6-1.62-3.38-.17-20.11-.51-25.49-.45-7.19-2.31-14.36-2.99-21.51ZM505.12,451.33c.49,7.79-13.74,18.91-13.04,5.55.39-7.54,4.72-12.39,2.8-21.82-1.72-8.48-9.6-10.32-13.81-16.22.03-5.57,29.8-13.03,23.1-30.08-3.93-9.99-16.73-.12-22.38,3.76-17.39,11.92-24.11,23.24-21.58,45.21,2.01,17.39,16.66,30.95,31.22,38.78,3.43,1.84,14.63,7.75,17.64,6.34l20.01-17.01c-5.34-3.76-7.45-8.29-14.72-8.26l-9.25-6.24ZM505.12,431.33c2.19,2.03,14.52-12.6,15.81-14.68,3.91-6.3,12.39-26.83-1.34-25.4-5.55.58-2.83,4.98-3.72,9.35-1.69,8.28-10.16,14.85-16.77,19.27,2.02,3.87,6.2,6.53,6.01,11.47ZM204.81,412.64l-30.69-17.3,1.12,25.87c5.4,1.7,27.46,7.42,28.71,12.83,2.47,10.68-15.22,15.16-19.71,21.6l36.08,57.99,21.65,43.35,8.13,20.36c.13-29.39-4.2-58.06-12.26-86.23-7.86-27.49-19.43-53.43-33.04-78.47ZM382.82,409.63c-6.49-3.29-15.02-11.72-21.68-13.89-3.04-.99-5.08.95-4.99,3.97,4,12.08,5.56,25.88,9.24,37.86,4.47,14.56,11.36,29.5,15.45,44.55,4.41,16.26,6.45,32.81,9.73,49.27.34,1.72.98,6.11,2.54,6.94l6.03-83.29c-1-3.69-20.48-4.6-22.83-14.47-2.13-8.94,9.01-11.45,9.7-13.89l-3.18-17.05ZM344.06,406.38c-1.99-1.39-20.12,13.71-25.02,13.53l3.23,20.27,23.33,10.21c5-.42,4.79-16.89,4.55-20.6-.53-8.02-3.21-16-6.09-23.41ZM516.4,446.03c5.75,4.66,18.59-7.17,22.22-11.68s11.35-17.31,7.55-22.58c-.27-.38-7.15-5.25-7.58-5.42-2.01-.8-2.51,5.85-3.3,7.68-4.73,11.07-12.19,20.2-22.19,26.85-.13.53,2.78,4.74,3.29,5.16ZM250.11,489.33c-1.86.94-.7,3.39-.35,4.84,2.97,12.47,6.61,25.48,8.35,38.16.63,4.6,2,13.52,2,17.5v20c0,7.61-.09,15.65,0,23.5,0,.33,0,.67,0,1-1.64,1.06-1.02,4.13-1,6,0,.33.02.67,0,1l-2.92,11.41c.16.53.64.43.92.59.23.14.72-.14,1,0,1.68,4.11,9.53,6.99,13.62,8.88,4.98,2.3,20.86,9.36,25.35,9.72,4.16.33,10.12-5.81,13.03-8.59.34-.32.67-.66,1-1,4.13.25,3.56-2.51,4-3,.74-.83,1.29-1.29,2-2,2.61-.31,4.34-2.73,6.05-4.48,1.81-1.86,3.63-5,4.95-6.52,1.87-2.14,3.04-3.15,5-5,.13-.12,1.16.23,1.72-.24,2.35-1.98.98-6.66,7.57-4.77.78.22,4.61,7.14,7.71,7.01.52.59,1.25,1.12,2,2-.23,3.63,3.42,4.42,4,5,.33.34.67.66,1,1l13,17c1.51.23,3.78-1.99,5-3,.93-.76,1.45-1.53,2-2,.44-.38,1.36-1.38,2-2,.13-.13,1.18.23,1.73-.24,1.61-1.37,3.82-7.03,6.22-8.49-.78-8.36-.39-16.94-.95-25.27-1.16-17.31-3.17-37.94-6-55-.4-2.43-.54-6.99-3-6,0-.33.04-.67,0-1-.02-.14.99-.9.96-1.6-.81-14.74-9.74-51.43-15.9-64.95-.4-.87-.85-2.53-2.06-2.44-5.12,8.63-9.44,9.78-18.98,6.48-5.96-2.06-18.81-11-23.62-11.48-4.26-.42-9.87,3.87-17.85,2.95-5.51-.64-2.07-3.5-8.55,1.05l-12.49,8.01c-7.54,3.95-13.71,8.88-22.17,3.63-9.04-5.62-8.64-32.53-14.34-42.64-.14-.25-.69-.64-1-1-.19-.22.63-1.89-.65-2.02-4.01.87-8.8-3.49-12.35-.98-1-.28-6.81-3.01-5.98-.52,1.62,4.89,7.86,13.7,10.45,19.55,6.77,15.27,12.96,33.86,17.53,49.97ZM307.08,423.35l-9.97.98c.09,5.48-.64,17.3,6.61,18,9.12.89,4.79-13.95,3.36-18.98ZM285.11,425.33c-9.93,1.27-20.02.07-29.99-.99,1.44,11.05,1.56,23.5,9.01,32.55,4.39,2.3,18.44-11.43,22.85-13.73l-1.86-17.83ZM435.11,657.33c7.32-31.78,13.49-64.45,12-97.49-1.78-39.41-14.31-89.34-37.16-121.84-1.1-1.56-8.48-11.63-9.81-10.67.3,3.22-10.28,9.34-8.02,11.99,5.38.11,14.84,7.29,16.46,12.06s.91,25.19.53,31.44c-1.08,17.85-3.74,39.02-6.11,56.89-2.68,20.14-8.05,34.24-4.76,55.01,2.95,18.61,12.24,42.75,26.37,55.58,1.04.95,9.85,7.63,10.5,7.03ZM532.12,454.35c14.64,11.62,28.13-13.37,23.98-26l-7.57,11.91c-5.27,4.81-9.27,12.17-16.41,14.1ZM468.47,476.98c-7.25-7.18-12.35-18.13-17.85-26.63l-12.53,11.57c11.94,31.77,22.11,65.04,21.04,99.41,4.27.23,7.31-2.7,10.46-5.02,12-8.86,26.41-25,34.56-37.44,3.6-5.51,6.44-11.5,9.93-17.08.4-2.05-.27-1.15-1.33-1.54-15.28-5.61-32.29-11.4-44.27-23.26ZM117.11,640.33c25.36-20.94,40.11-46.5,17.98-76.99l-40.46,39c-.94,2.06-.75,5.08-.29,7.27.92,4.37,15.15,21.06,1.94,17.05-6.76-2.05-10.53-8.92-12.19-15.33-6.64,3.38-10.38,4.77-17.98,3-.57,6.94,3.09,11.3,8.08,15.41,2.05,1.69,20.2,11.42,16.91,14.58-10.38,1.05-26.89-8.62-31-17.99-.06-.14,1.22-2.57-.65-3.05l-4.7.23c-1.02.29-1.34.88-1.65,1.81-.08.24.01.65,0,1h-1.99c-.34.46,1.83,7.43,2.21,7.82.51.52,1.63.04,1.79.18.92.79,1.32,1.35,2,2,.34.32.68.66,1,1s.67.69,1,1c.5.47.61.8,2,2,.38.33.71.78,1,1,.53.4,1.02,2.01,2.25,2.2l9.75,3.8c.67.32,1.36.71,2,1,14.94,6.7,28.94,1.96,41-8ZM365.39,643.05c-5.14-6.86-9.92-14.55-15.3-21.19-1.63-2.01-6.55-8.39-8.53-8.57-3.85.31-6,5.01-8.83,7.64-4.69,4.36-10.69,10.02-15.7,13.82-2.55,1.94-15.23,10.35-17.49,10.58-3.97.41-13.92-3.31-18.09-4.83-10.57-3.84-20.51-9.45-30.73-14.08-22.51,38.99-62.91,58.89-107.1,61.72-2.81.18-6.79-1.9-10.28.42l-32.75,146.78c21.82,14.52,53.07,18.96,79.06,18.04,3.89-.14,14.78-.59,17.41-2.59,1.57-1.19,8.03-12.91,9.44-15.56,19.26-36.44,33.75-75.56,53.04-111.96,2.68-2.71,14.43-3.82,18.77-5.23,15.28-4.96,34.52-15.87,48.05-24.74.68-.45.69-2,1.35-2.02l3.25,1.2c.66,1.03.1,3.64-.32,4.89-3.9,11.63-34.42,28.52-45.65,33.38-1.24.54-2.52.56-3.82.64l.93,114.95c4.44-.81,9.44.76,13.51.79,11.35.11,28.73-.58,39.99-1.81,11.6-1.26,23.97-5.41,35.5-7.5,1.2-.75,4.82-13.01,5.52-15.48,13.86-48.98,26.09-107.01,31.55-157.46.25-2.27,1.96-3.83,2.04-7.04.13-6.04-2.45-4.85-5.14-7.95-5.54-6.39-11.47-12.75-14.97-20.56-1.65-1.12-16.39,20.6-24.71,13.71Z"/>
  <path class="cls-19" d="M457.11,159.33c-2.38,4.8-2.43,7.88-1.74,13.24l31.48,153.45c-3.85,6.09-2.37,9.11-.84,15.65l-1.49,1.55-6.4,2.1c1.32-1.06,5.58-3.6,5.89-4.65.58-1.97-2.06-6.13-1.86-8.8s2.75-3.95,2.87-5.98l-31.81-155.19c-.74-4.18,1.12-7.81,2.92-11.37h1Z"/>
  <path class="cls-14" d="M269.11,733.33c.1.12,2.43-.5,2.09,1.43l-.09,143.08,1.25,4.25c1.52.5,3.16,1,4.75,1.24v1c-7.23-1.77-6.26-5.4-8-6v-145Z"/>
  <path class="cls-19" d="M38.11,876.33c-1.13,4.04-5.84,9.44-2.77,13.77,2.03,2.86,22.13,7.01,26.28,7.22,15.71.79,36.98-1.2,52.53-4.46,16.49-3.45,32.7-9.47,47.46-17.55,2.72-.92.89,6.35.51,7.34-.51,1.37-1.7.45-2.01.67.05-2.2,1.14-4.21.51-5.99-6.09,4.38-13.25,7.18-20.26,9.74-26.1,9.53-65.96,16.03-93.07,9.58-12.09-2.88-19.76-9.29-9.18-20.32Z"/>
  <path class="cls-4" d="M534.11,236.33c.56,2.6-1.3,2.04-2.97,2.48-8.24,2.14-16.68,3.9-25.03,5.53l14.23,71.25c1.29,1.41,1.5,4.06,1.77,4.75h-1c-.71-1.2-1.8-1.68-2-2l-15-74c.07-.25.72-.66,1-1,9.65-2.35,19.36-4.61,29-7Z"/>
  <path class="cls-4" d="M269.11,733.33v145c-.05-.02-.97,1.74-1,.5-1.15-46.27,1.55-92.8,0-139.04-.06-1.93,1.02-4.01-2-3.45.62-1.28.47-3.38,2-4.51l1-.49c.16.58-.18,1.78,0,2Z"/>
  <path class="cls-12" d="M295.11,104.33c-14.22-30.25-20.02-64.12-26-97v-1c4.17,5.53,4.79,20.5,6.47,28.03,5.27,23.69,11.81,46.99,19.53,69.97Z"/>
  <path class="cls-12" d="M15.11,464.33c-.51,2.12-1.41,5.92-2.32,7.7-10.73,21.08-14.29,39.68-7.67,63.8.36,1.32,1.96,3.59-.01,4.5-9.59-25.8-5.37-53.63,10-76Z"/>
  <path class="cls-19" d="M385.11,845.33c-.25-.18-1.37.23-1.95-.03,5.28-22.52,9.87-45.51,15.42-68.05.34-1.4,1.43-2.51,1.53-2.93-.34,1.71.18,4.06-.26,6.23-4.36,21.68-11.06,42.94-14.74,64.77Z"/>
  <path class="cls-12" d="M415.11,709.33c-4.16,22.05-9.71,43.58-15,65,4.54-22.74,9.73-43.95,14-66l1,1Z"/>
  <path class="cls-19" d="M368.11,889.33v-1c17.48,2.74,47.11,4.75,64.02.52,12.39-3.1,10.54-8.17,3.98-17.52,4.84,4.83,11.35,10.35,2.98,16.48-11.46,8.4-56.2,3.89-70.98,1.52Z"/>
  <path class="cls-14" d="M101.11,778.33c-4.92,22.04-10.5,44.02-13.98,66.34-.2,1.24-1.8.48-2.02.66,3.3-22.7,9.87-44.72,15-67h1Z"/>
  <path class="cls-19" d="M277.11,884.33v-1c13.46,1.99,27.42,1.94,41.01,2.01l.99-10.01.56,11.06-1.2.8c-13.21.14-28.5.28-41.36-2.86Z"/>
  <path class="cls-19" d="M113.11,725.33c-3.4,17.79-8.05,35.3-12,53h-1c4.3-18.65,7.43-37.65,13-56-.17.91.17,2.09,0,3Z"/>
  <path class="cls-14" d="M269.11,6.33v1c-1.44-2.32-5.1-3.28-7.56-3.94-14.93-4.01-41.08-1.24-56.44,1.94v-1c13.66-2.82,50.94-7.92,62-.46,1.06.72,1.34,1.58,2,2.46Z"/>
  <path class="cls-19" d="M523.11,199.33c-.2-.24-5.2-.97-1.01-4.51,3.22-2.72,17.25-2.04,18.81-7.18,1.87-6.15-4.48-20.31-4.8-27.31h1c1.42,2.43,5.31,18.3,5.75,21.76,1.68,13.5-8.87,9.86-17.25,13.23-2.39.96-2.75,1.31-2.5,4.01Z"/>
  <path class="cls-19" d="M97.11,326.33c-8.64-14.71-11.79-32.52-3-48,.01.13.9.55.78,1.31-.47,3.02-3.19,7.15-3.67,11.3-1.37,11.88.39,20.81,5.4,31.38.48,1.02,2.5,3.41.49,4.01Z"/>
  <path class="cls-19" d="M205.11,4.33v1c-30.33,6.29-60.45,21.39-85.35,37.64-1.3.85-3.13,1.02-4.43,2.02l-23.22,18.34c26.17-27.93,75.65-51.3,113-59Z"/>
  <path class="cls-14" d="M234.11,804.33l-35.45,74.05c-4.97,5.62-19.76,8.02-27.17,8.83-3.42.37-19.98,2.15-11.38-3.88-.02,1-.02,2,0,3,12.52-.78,25.47-2.19,36.99-7.51l34.81-72.24c.1-1.13,2.04-1.93,2.2-2.25Z"/>
  <path class="cls-14" d="M88.11,196.33c-.68,4.5-4.59,7.22-6.56,10.94-7.04,13.34-10.95,30.39-7.17,45.29,1.52,5.98,5.37,10.4,7.73,15.77-17.36-19.59-11.7-44.89.72-65.73l5.28-6.27Z"/>
  <path class="cls-12" d="M368.11,888.33v1c-15.53-2.49-29.6-5.61-44-12l12.18,2.32c9.33,3.42,22.44,7.22,31.82,8.68Z"/>
  <path class="cls-12" d="M522.11,320.33c.24.62,1.91,1.09,2.53,2.96.95,2.87,1.57,6,1.47,9.04,34.87.02,58.66,28.98,48.72,63.22-.79,2.72-2.26,7.24-4.72,8.78,12.84-28.77,1.99-61.04-29.99-68.51-4.53-1.06-10.16-.67-13.36-1.46-1.11-.27-.53-1.93-.65-2.03-.4-.34-2.48,0-2.92-1.61-.82-3.02,1.26-4.75-2.08-10.39h1Z"/>
  <path class="cls-16" d="M399.11,262.33l-12-47c6.03,12.05,10.49,33.52,12,47Z"/>
  <path class="cls-12" d="M489.11,164.33c4.05-2.3,9.26-3.53,13.78-4.72,5.6-1.46,19.76-5.4,24.75-5.31,3.3.06,7.88,3.32,9.47,6.03h-1c-12.13-9.07-31.41,2-45.04,4.61-1.34.26-1.86-.62-1.96-.61Z"/>
  <path class="cls-12" d="M558.11,459.33c8.56-13.26,11.21-29.16,4.17-43.72-.11-.97.79-1.14.83-1.28,8.56,15.43,6.29,31.86-5,45Z"/>
  <path class="cls-14" d="M120.11,686.33c1.34.16,2.41-.69,1.94,1.42l-8.94,37.58c.17-.91-.17-2.09,0-3,2.25-12.02,4.62-24.01,7-36Z"/>
  <path class="cls-19" d="M441.11,442.33c2.31-2.15,5.15-3.87,6.79-6.71.18-9.09.42-18.48,4.03-26.97,2.41-5.67,4.18-4.72,4.18-10.82v-17c0-2.64,3.14-11.19,5-13.5-1.83,5.82-3.8,17.5-4.04,23.55-.11,2.96,1.57,5.54,1,8.87-.62,3.68-5.04,9.84-6.32,14.73-1.71,6.54-.49,15.56-1.85,20.15-.49,1.66-6.49,7.46-8.79,7.71Z"/>
  <path class="cls-19" d="M548.11,231.33c-5.09,4.88-8.44,3.62-14,5-9.64,2.39-19.35,4.65-29,7,.17-.21-.57-1.81.7-2,13.81-3.77,29.63-4.61,42.3-11v1Z"/>
  <path class="cls-12" d="M548.11,231.33v-1c4.54-9.26-2.13-17.54-2-27v-1c.38.58,1.39.59,1.98,2.47,2.09,6.69,5.39,21.37.02,26.53Z"/>
  <path class="cls-16" d="M399.11,291.33c-1.68-6.8-1.11-14.4-1.02-21.51.02-1.69-.64-4.44,1.02-5.49.87,9.01,1.92,17.93,0,27Z"/>
  <path class="cls-19" d="M413.11,286.33c.88-1.12.95-2.46,2.98-1.99,6.86,13.72,2.08,29.95-5.98,41.99l4.71-11.79c2.38-9.19,4.66-16.66,1.57-26.04-.8-2.42,0-2.54-3.28-2.18Z"/>
  <path class="cls-12" d="M328.11,125.33c8.29-4.52,20.63-15.66,29.49-16.07,6.33-.29,12.65,3.04,15,9.08,2.8,7.21,1.58,14.12-1.49,20.99l.95-16.45c-2.02-4.76-2.11-9.3-7.89-11.11-10.65-3.33-20.43,5.08-28.54,10.57l-7.51,2.99Z"/>
  <path class="cls-14" d="M420.11,679.33c-1.35,10.07-3.11,20-5,30l-1-1c1.84-9.48,3.17-19.36,4-29.01.66-.06,1.34.07,2,0Z"/>
  <path class="cls-14" d="M475.11,567.33c-4.64,3.79-9.04,7.12-14.81,9.19-2.17,7.82.3,16.37-3.19,23.81,0-.07-.7-.44-.68-1.26.17-7.44,2.42-15.01,1.85-22.58l16.84-9.16Z"/>
  <path class="cls-14" d="M460.11,154.33c5.77-4.37,10.87-5.7,18.07-2.53.36.16,5.41,3.57,5.64,3.81,2,2.06,3.12,6.09,4.29,8.72-.18.02-1.01,1.37-1.99,1-2.22-13.44-14.99-15.82-26.01-11Z"/>
  <path class="cls-19" d="M89.11,66.33c-4.52,4.83-7.34,7.56-12,12,2.14-4.58,7.42-9.86,12-12Z"/>
  <path class="cls-19" d="M524.11,201.33c6-1.64,15.95-5.67,21.31-1.03.95.82.52,1.77.69,2.03v1c-1.42-.48-1.57-2.33-2.78-2.97-5.85-3.14-16.17,3.92-19.22.97Z"/>
  <path class="cls-19" d="M434.11,869.33l-13.62-7.88c-11.07-5.16-24.42-8.49-34.38-15.12,15.83,5.57,35,12.15,48,23Z"/>
  <path class="cls-14" d="M438.11,675.33c-4.2,2.36-12.06,3.04-17,4-.59-3.04,1.48-1.75,3.31-2.14,4.3-.9,9.34-2.5,13.69-1.86Z"/>
  <path class="cls-14" d="M452.11,637.33c-1.88-6,1.32-14.11,3-20-.16,6.48-1.53,13.17-3,20Z"/>
  <path class="cls-14" d="M106.11,684.33c3.5-2.65,8.69,1.08,13.01,0v2c-4.43-.41-8.75-.56-13.01-2Z"/>
  <path class="cls-19" d="M65.11,92.33c-1.88,5.93-10.27,13.06-7.34,19.77.73,1.67,3.68,1.68,3.34,4.23-.17-.17-1.6-.03-2.46-1-7.76-8.75,1.23-16.04,6.46-23Z"/>
  <path class="cls-19" d="M91.11,150.33c1.95,2.58,6.08,7.25,7.98,10.74,1.5,2.76,8.55,17.22,7.02,19.27-.62.14-1.57-.18-2,0-.33-11.13-8.67-20.16-13-30Z"/>
  <path class="cls-12" d="M358.11,166.33c12.56,13.15,22.21,30.83,28,48-8.08-16.81-17.17-32.66-28-48Z"/>
  <path class="cls-14" d="M105.11,683.33c-5.52-.4-22.19-5.12-23.83-10.73-.75-2.56.44-3.47.83-5.27l1.99,7.51c6.92,2.89,13.91,6.11,21.01,8.49Z"/>
  <path class="cls-19" d="M72.11,126.33c4.57,3.85,4.44,4.09,8.03,8.25,3.87,4.48,8.36,8.76,9.97,14.75-3.79-4.93-7.49-11.24-11.3-15.71-1.63-1.91-5.71-3.67-6.7-7.29Z"/>
  <path class="cls-19" d="M468.11,355.33c-.31,2.49-2.35,5.75-3.59,7.95-.79,1.41-1.32,3.5-3.41,3.05,1.3-4.04,4.54-7.78,7-11Z"/>
  <path class="cls-14" d="M456.11,609.33c-.06-2.14-.68-5.68,1-7,.04,1.6,1.71,4.69-1,7Z"/>
  <path class="cls-12" d="M555.11,462.33c-3.46,3.1-6.54,6.34-12,6,.17-.36-.27-1.32.04-1.92,5.89,1.4,6.61-3.39,11.96-4.08Z"/>
  <path class="cls-19" d="M71.11,125.33c-2.71-2.37-5.16-4.25-8-7,3.6.91,6.8,3.45,8,7Z"/>
  <path class="cls-19" d="M90.11,274.33c3.95.54,3.1.68,4,3-2.77.28-3.7-2.1-5-3h1Z"/>
  <path class="cls-19" d="M58.11,862.33c-2.55,2.61-5.63,4.97-9.25,7.31-3.04,1.96-6.5,4.17-9.75,5.69,5.08-5.02,12.59-9.93,19-13Z"/>
  <path class="cls-14" d="M455.11,616.33c-.04-1.86-.63-4.95,1-6,0,1.5,1.81,3.94-1,6Z"/>
  <path class="cls-12" d="M24.11,452.33c2.12-2.48,4.48-5.36,7-8-1.03,2.84-4.11,7.43-7,8Z"/>
  <path class="cls-19" d="M412.11,287.33c-.14.17.35,1.27-.15,1.83-.28.32-6.54,4.56-6.95,4.69-2.36.75-2.67-.52-2.9-.52l10-6Z"/>
  <path class="cls-19" d="M431.11,449.33c-1.38-.47-5.23-7.13-5-9,1.87,2.69,5,5.54,5,9Z"/>
  <path class="cls-14" d="M90.11,274.33h-1c-1.86-1.3-2.08-1.31-4-3,1.77.84,4.23.93,5,3Z"/>
  <path class="cls-12" d="M23.11,453.33c-1.1,3.81-4.94,7.08-7,10,.63-4.09,4.38-6.9,7-10Z"/>
  <path class="cls-12" d="M370.11,141.33c-2.64,8.49-9.04,14.68-15,21-.21-.34-1.55-.16-.99-1.98.88-.07,1.81-.4,2.47-1,4.44-4.03,10.69-12.62,13.53-18.02Z"/>
  <path class="cls-19" d="M75.11,80.33c-.86,2.92-3.02,6.23-6,7,1.9-2.23,3.55-4.68,6-7Z"/>
  <path class="cls-14" d="M457.11,159.33h-1c1.03-2.05,1.11-2.19,3-4,.31,1.96-1.48,2.96-2,4Z"/>
  <path class="cls-14" d="M483.11,561.33c-2.35,2.06-3.54,4.09-7,5,2.21-1.94,3.96-4.38,6.51-5.98l.49.98Z"/>
  <path class="cls-19" d="M440.11,443.33c.25,2.02-4.99,5.67-7,6,2.51-1.08,3.9-4.51,5.3-5.73.56-.48,1.56-.15,1.7-.27Z"/>
  <path class="cls-14" d="M94.11,189.33c-.69,2.18-2.65,6.32-5,6,.26-2.02,3.2-4.12,5-6Z"/>
  <path class="cls-12" d="M35.11,440.33v2s-2,0-2,0c.67-.68,1.31-1.33,2-2Z"/>
  <path class="cls-12" d="M570.11,405.33c-.93,2.05-4.04,5.61-6,7,1.22-2.19,3.77-7.19,6-7Z"/>
  <path class="cls-19" d="M424.11,437.33c-1.12-1.4-3.17-2.16-3-5,1.1,1.63,2.43,3.04,3,5Z"/>
  <path class="cls-12" d="M36.11,439.33c2.85-2.76,6.01-5.38,9-8-2.42,2.9-5.3,7.08-9,8Z"/>
  <path class="cls-19" d="M66.11,91.33c.65-.85,1.02-1.85,2-3,.02,1.48-.6,2.51-2,3Z"/>
  <path class="cls-19" d="M101.11,182.33c.66-.48,1.21-1.59,2-2,.12,1.39-.73,3.53-2,2Z"/>
  <path class="cls-12" d="M49.11,428.33c.53-.44,1.08-1.25,2-2l-2,2Z"/>
  <path class="cls-2" d="M365.39,643.05c8.32,6.89,23.06-14.83,24.71-13.71,3.5,7.81,9.43,14.17,14.97,20.56,2.69,3.1,5.28,1.92,5.14,7.95-.07,3.21-1.79,4.77-2.04,7.04-5.45,50.45-17.69,108.47-31.55,157.46-.7,2.47-4.33,14.73-5.52,15.48-11.53,2.09-23.9,6.24-35.5,7.5-11.26,1.23-28.64,1.91-39.99,1.81-4.06-.04-9.07-1.61-13.51-.79l-.93-114.95c1.31-.07,2.59-.1,3.82-.64,11.23-4.86,41.75-21.75,45.65-33.38.42-1.25.97-3.86.32-4.89l-3.25-1.2c-.66.02-.67,1.57-1.35,2.02-13.53,8.86-32.77,19.78-48.05,24.74-4.34,1.41-16.08,2.53-18.77,5.23-19.29,36.4-33.78,75.51-53.04,111.96-1.4,2.66-7.87,14.37-9.44,15.56-2.63,2-13.53,2.45-17.41,2.59-26,.92-57.24-3.52-79.06-18.04l32.75-146.78c3.49-2.32,7.47-.24,10.28-.42,44.19-2.82,84.59-22.73,107.1-61.72,10.22,4.63,20.16,10.24,30.73,14.08,4.16,1.51,14.11,5.24,18.09,4.83,2.26-.23,14.94-8.64,17.49-10.58,5.01-3.8,11.01-9.46,15.7-13.82,2.83-2.63,4.98-7.33,8.83-7.64,1.98.18,6.91,6.56,8.53,8.57,5.38,6.64,10.16,14.33,15.3,21.19Z"/>
  <path class="cls-15" d="M160.11,383.33c.68,7.16,2.55,14.32,2.99,21.51.34,5.38-1.11,22.12.51,25.49,1.88,3.93,17.07,5.16,21.51,6,.03,7.18-11.35,8.62-13.46,14.05s6.57,18.39,9.45,23.46c12.82,22.61,28.38,43.54,40.21,66.79,10.28,20.2,17.71,41.83,24.77,63.07-18.54,62.37-95.26,82.53-151.79,62.46l-.23-3.28c.26-.82,9.12-2.37,11.03-3.08,24.61-9.05,47.3-31.06,52.58-57.42,5.72-28.56-16.16-49.17-28.41-72.41,8.91-8.54,21.32-16.06,28.29-26.71,3.17-4.85,6.07-10.02,4.13-16-6.29-3.59-6.53,1.02-9.52,3.61-10.55,9.13-21.3,18.05-31.68,27.39-11.66-7.78-23.32-22.63-38.93-18.01-.62.88-.78,2.93-.23,3.89s14.51,9.83,17.27,12.2c4.21,3.62,11.38,10.77,15.04,14.96,2.99,3.42,12.79,15.7,12.59,19.5-.15,2.85-4.24,7.54-6.13,9.98-12.34,15.91-30.11,30.59-47.55,40.57-11.04-8.01-21.69-16.9-30.93-27.03-47.01-51.52-34.24-96.32,16.06-137.97,29.48-24.41,65.71-42.64,102.45-53.05Z"/>
  <path class="cls-13" d="M336.11,162.33c2.71,1.89,8.19,6.57,10.53,8.97.89.91,5.6,5.05,4.46,6.02-5.91-.46-12.79,2.36-17.04,6.46-3.7,3.57-16.51,23.79-5.46,23.64,9.49-.13,9.44-21.87,26.95-19.03,5.13.83,9.23,8.07,11.73,12.27,9.9,16.63,16.01,38.64,18.83,57.67.36,2.44.74,4.44,1,7,.03.33-.03.67,0,1-2.62,3.44.16,24.69-1.01,25.99l-9.99-3.99c-5.64-2.86-11.53-6.67-17.95-7.05,2-18.05-20.99-36.25-37.61-34-3.04.41-7.07,3.75-5.26,6.88.63,1.09,14.42,5.86,17.14,7.34,14.41,7.86,20.77,21.98,4,31.65-13.14,7.58-31.24,4.62-44.33-1.83l-1-1c-.23-.43-.69-.66-1-1-3.01-3.33-11.78.16-16,1.5-18.83,6-25.96,14.89-48.4,12.39-4.07-.45-21.97-7.17-23.53-5.81-4.2,10.68-1.21,22.56,4.92,31.92,4.37,6.67,11.37,11.7,18,16,12.27,7.96,21.57,10.25,36,12,.65.08,1.34-.02,2,0l2,1c.27.16.67.69,1,1v2s2,0,2,0c.14.26-.14.74,0,1,1.5,2.8,9.68,9.85,13,11,.36.28.63.71,1,1,12.27,9.8,30.54,10.69,43,1h1c5.26-4.08,9.85-5.95,13-12,.17-.33.83-.62,1-1,1.4-.48,1.99-1.54,2-3,3.51-2.19,4.05-7.33,5.01-11.01,8.51,3.9,17.22.57,25.98.5-9.43,18.75-21.35,32.92-37.99,45.51l-20.78,9.72c-17.09,5.22-35.66,1.25-51.6-5.84-3.52-1.57-9.04-5.93-12.23-6.79-2.26-.6-1.07.87-1.39,1.91-.22.71-.93,1.27-.76,2.32.69,4.23,13.67,15.12,18.75,15.69.27,1.58-1.41,1.05-2.52,1.03-10.32-.16-26.37-3.69-36.47-6.55-32.57-9.22-62.04-31.87-77.85-61.85,3.26-4.5,8.92-9.64,5.71-15.52-4.64-1.35-6.67,1.91-9.87,3.87,2.61-2.14,1.46-4.96,2.04-7.3.16-.64,3.34-1.3,1.96-4.7l-4.99,1.99c2.41-8.32-3.06-4.39-6.28-5.12s-1.62-2.71-1.72-2.87c9.38.74,7.51-5.77,7-12l2.01,3.01c3.53-2.6,5.23,2.02,5.57,2.05,2.21.18,4.61-2.91,7.43-2.07.37-2.02-1.82-2.61-2-4.52-.3-3.12,3.89-8.51-2-7.48v-11.99c-3.77-.89-1.1,3.62-2.11,4.92-.32.41-1.63-.1-1.89.07l-.86-9.32c10.66-8.08,17.25-19.76,18.85-33.14l-1.99-1.05c-7.29,6.32-13.02,16.08-21,21.51l-3-1.48,8-20.52c5.35-7.41,6.9-15.09,8-24s.33-18.1,2-27c14.18-8.24,25.93-12.69,42-17,.97,1.91,3.37.65,4.83.34,11.84-2.48,23.59-5.08,35.68-6.34,21.96-2.29,44.28-1.17,65.73-7.32,1.68-.48,3.25-.23,2.77-2.69,4.09-.96,8.04-2.54,12.26-2.85,3.5,2.48,8.39,4.51,11.74,6.85ZM227.87,184.59c-5.91.85-16.18,6.37-20.3,10.7-2.54,2.67-9.94,13.04-3.74,14.87,5.72,1.68,8.98-4.96,12.94-7.67,8.36-5.7,19.83-6.58,29.58-4.91,5.68.97,23.53,10.98,25.58,4.04,1.39-4.69-3.44-7.53-6.91-9.71-9.83-6.16-25.73-8.96-37.16-7.32ZM351.77,227.63c-13.78.73-7.36,31.56,6.41,29.28s6.24-29.95-6.41-29.28ZM253.89,233.62c-8.66.92-20.78,6.46-18.8,17.2,1.6,8.64,11.4-1.39,14.33-2.67,5.49-2.4,11.02-1.88,16.69-.31,4.41,1.22,14.65,9.25,17.53,3.5,2.49-4.96-6.89-12.12-10.85-14.18-5.88-3.05-12.36-4.23-18.91-3.54ZM199.21,263.24c1.31,1.94,21.87,1.05,19.87-5.33-1.75-5.61-24.62-1.65-19.87,5.33ZM225.11,266.35c-3.5-2.97-17.07,2.89-16.79,6.5.47,6.05,18.36-.28,16.79-6.5Z"/>
  <path class="cls-6" d="M228.11,420.33c4.27,1.18,8.46,2.95,13,3,.31.36.86.75,1,1,2.22,12.17,4.89,47.77,22.42,46.95,7.39-.35,20.3-11.54,26.58-15.95,6.48-4.55,3.04-1.69,8.55-1.05,7.97.92,13.59-3.37,17.85-2.95,4.81.47,17.66,9.41,23.62,11.48,9.54,3.3,13.86,2.15,18.98-6.48l17,69c.04.33,0,.67,0,1,.06,1.98.78,3.96,1,6,1.95,18.48,4.87,36.25,6,55,.42,6.96,2.15,18.05.96,24.46-.71,3.8-4.83,6.27-5.96,9.54-.64.62-1.56,1.62-2,2l-2,2c-1.22,1.01-3.49,3.23-5,3-3.2-6.18-8.19-11.97-13-17-.33-.34-.67-.66-1-1,.19-2.09-2.4-3.14-4-5-.75-.88-1.48-1.41-2-2-.76-.86-1.17-2.71-2.46-4.03-2.65-2.68-6.66-3.9-7.55-6.97l-6.98,8.99c-1.96,1.85-3.13,2.86-5,5-3.38,3.92-7.36,7.34-11,11-.71.71-1.26,1.17-2,2-2.51-.15-2.86,1.82-4,3-.33.34-.66.68-1,1-4.59,1.81-9.02,7.69-14.25,6.82-3.81-.63-15.14-5.8-19.43-7.65-6.11-2.64-12.28-6.24-18.33-9.17-.28-.14-.77.14-1,0-.03-3.43,2.25-6.79,2.62-10.04.17-1.5-.62-1.85-.62-1.96.02-.33,0-.67,0-1,2.8-2.09,1.02-4.43,1-6,0-.33,0-.67,0-1l2.04-15.46c-.28-7.17.25-14.39-.04-21.54-.07-1.78-.99-1.89-1-2-.09-1.66.12-3.35,0-5-.05-.66.06-1.34,0-2-.08-.99.1-2.02,0-3-.17-1.76-.99-1.89-1-2-.21-1.93.15-4.04,0-6l-1-2c-.06-.65.09-1.37,0-2-2.23-14.92-4.88-28.49-9-43-4.57-16.11-10.76-34.7-17.53-49.97-2.59-5.85-8.83-14.66-10.45-19.55-.83-2.49,4.98.24,5.98.52ZM311.11,475.33c-.33.22-.72.68-1,1-5,5.76-2.76,10.71,2,16,.31.34.65.7,1,1,4.82,4.07,8.12,3.71,11.41-2.08,4.53-7.96-3.5-22.66-13.41-15.92Z"/>
  <path class="cls-2" d="M435.11,657.33c-.65.6-9.46-6.09-10.5-7.03-14.13-12.83-23.42-36.97-26.37-55.58-3.29-20.77,2.08-34.87,4.76-55.01,2.37-17.87,5.03-39.04,6.11-56.89.38-6.25,1.14-26.49-.53-31.44s-11.08-11.95-16.46-12.06c-2.26-2.65,8.32-8.77,8.02-11.99,1.34-.96,8.71,9.11,9.81,10.67,22.85,32.5,35.38,82.43,37.16,121.84,1.49,33.04-4.68,65.71-12,97.49Z"/>
  <path class="cls-3" d="M387.11,305.33c.33.04.67-.03,1,0,5.26.4,12.68.5,17-3,.53.15,1.37-.12,2.01,0-.28.93-1,2.07-1.01,2.99-7.74,27.91-36.9,38.46-62.98,28.48-6.21-2.38-11.25-6.74-17.56-8.58-3.29,2.14-6.13,4.99-9.46,7.09-11.58,7.31-19.07,11.24-33,13-10.61,1.34-17.53,1.22-28-1-16.39-3.47-39.36-13.26-40.99-32,.23-.38,1.68,1.03,1.99,1,17.04,4.73,33.03.76,48.98-5.52,5.17-2.03,12.02-4.76,16.02-8.48.92-.28,1.14.39,2-1h4c1.06,1.79,1.6,1.87,3,3,13.12,10.58,39.5,10.75,53,1,.44-.32,1.43-.31,2-1l3-2c.37-.13.69-.86,1-1,3.27-1.49,4.19-1.86,5.12-5.88,11.5,1.61,21.06,11.48,32.88,12.88Z"/>
  <path class="cls-5" d="M176.11,143.33c-20.51,3.6-40.07,13.84-57.99,24-.44-1.88,1.05-2.38,1.99-3.5,10.37-12.38,30.74-26.15,44.98-34.02,33.39-18.45,72.48-31.8,110.91-32.36,4.44,13.35,11.69,25.48,18.11,37.88-.95,3.85-4.12,3.33-7.63,3.87-15.18,2.36-34.21,2.68-49.58,1.83-1.69-.09-3.2-2.17-2.79,1.3-1-.04-2,.04-3,0,1.78-2.71.98-1.9-1.48-2-9.97-.43-20.12-1.63-30.07-1.06-1.87.11-3.75-.22-4.45,2.06-.67,0-1.33,0-2,0-4.8-.05-7.56-.71-13.5.05-1.87.24-4.06-1.27-3.5,1.95Z"/>
  <path class="cls-15" d="M204.81,412.64c13.6,25.04,25.17,50.98,33.04,78.47,8.06,28.17,12.39,56.84,12.26,86.23l-8.13-20.36-21.65-43.35-36.08-57.99c4.49-6.44,22.18-10.92,19.71-21.6-1.25-5.4-23.3-11.13-28.71-12.83l-1.12-25.87,30.69,17.3Z"/>
  <path class="cls-2" d="M468.47,476.98c11.98,11.86,28.99,17.65,44.27,23.26,1.06.39,1.73-.51,1.33,1.54-3.49,5.58-6.33,11.57-9.93,17.08-8.14,12.45-22.55,28.58-34.56,37.44-3.15,2.33-6.2,5.26-10.46,5.02,1.07-34.37-9.1-67.63-21.04-99.41l12.53-11.57c5.51,8.5,10.61,19.45,17.85,26.63Z"/>
  <path class="cls-20" d="M60.11,626.33c4.1,9.37,20.61,19.05,31,17.99,3.29-3.16-14.86-12.89-16.91-14.58-4.99-4.11-8.65-8.48-8.08-15.41,7.6,1.77,11.34.38,17.98-3,1.66,6.41,5.43,13.27,12.19,15.33,13.21,4.01-1.03-12.68-1.94-17.05-.46-2.19-.65-5.21.29-7.27l40.46-39c22.13,30.49,7.38,56.05-17.98,76.99-12.73,7.56-26.18,12.52-41,8-.64-.29-1.33-.68-2-1-4.03-1.9-7.98-4.08-12-6-.29-.22-.62-.67-1-1l-2-2c-.33-.31-.69-.67-1-1l-1-1c-.68-.65-1.08-1.21-2-2-.79-2.95-2.12-4.68-2-8,.01-.35-.08-.76,0-1,2.6.13,5.38-1.73,7,1Z"/>
  <path class="cls-8" d="M505.12,451.33l9.25,6.24c7.27-.03,9.38,4.5,14.72,8.26l-20.01,17.01c-3.01,1.41-14.22-4.5-17.64-6.34-14.56-7.83-29.21-21.39-31.22-38.78-2.54-21.97,4.19-33.29,21.58-45.21,5.65-3.87,18.45-13.75,22.38-3.76,6.7,17.05-23.07,24.51-23.1,30.08,4.21,5.91,12.09,7.74,13.81,16.22,1.92,9.43-2.41,14.28-2.8,21.82-.7,13.36,13.53,2.24,13.04-5.55Z"/>
  <path class="cls-2" d="M382.82,409.63l3.18,17.05c-.69,2.44-11.83,4.95-9.7,13.89,2.35,9.86,21.83,10.78,22.83,14.47l-6.03,83.29c-1.56-.83-2.2-5.22-2.54-6.94-3.28-16.46-5.32-33.01-9.73-49.27-4.09-15.05-10.97-29.99-15.45-44.55-3.68-11.98-5.23-25.79-9.24-37.86-.09-3.02,1.95-4.96,4.99-3.97,6.66,2.17,15.2,10.6,21.68,13.89Z"/>
  <path class="cls-11" d="M514.06,331.37l2.1,12.92c10.65.22,20.03-1.28,29.93,3.57,20.86,10.22,25.96,41.22,9.38,57.41l-12.31-8.41c16.92-17.21,4.05-39.13-17.83-41.23-13.1-1.26-28.84,5.08-37.23,15.22-1.99,2.4-3.1,6.38-5.49,8.51-3.36,2.99-10.93,5.11-14.5,8.99.45-13.77,6.49-28.49,18.67-35.82,2.51-1.51,10.67-4.1,11.22-5.85l-2.89-12.32,18.94-2.98Z"/>
  <path class="cls-11" d="M495.12,323.34l-30.68-154.67c.58-9.02,10.6-10.09,13.41-1.56l31.03,152.78-13.76,3.46Z"/>
  <path class="cls-1" d="M143.11,284.33c-2.21.32,1.47,3.08,2.96,3.58,2.98,1,2.66-.1,4.04-.58.24-.08.61-.74,1-1,.25-.17,1.57.34,1.89-.07,1.01-1.3-1.66-5.81,2.11-4.92v11.99c5.89-1.03,1.7,4.36,2,7.48.18,1.9,2.38,2.5,2,4.52-2.82-.84-5.22,2.25-7.43,2.07-.34-.03-2.04-4.65-5.57-2.05l-2.01-3.01c-.03-.33.05-.68,0-1-.46-3.11-2.4-9.85-5.18-11.9-.27-.2-.77.93-.82.9-2.57-1.42-4.31-4.74-6.95-5.55-4.57-1.41-19.49-.35-19,6.08.56,7.33,14.62-2.14,18.68,8.24,2.62,6.69,1.59,8.19,6.26,15.24.11.17-1.43,2.16,1.72,2.87s8.69-3.19,6.28,5.12l4.99-1.99c1.39,3.4-1.8,4.05-1.96,4.7-.58,2.34.58,5.15-2.04,7.3-2.24,1.38-2.51,3.1-6.74,3.76-21.79,3.38-36.75-14.96-38.24-35.27-1.93-26.46,25.84-37.23,41.98-16.49ZM145.11,323.34h-1.99v1.99h1.99v-1.99Z"/>
  <path class="cls-11" d="M515.45,209c6.69,6.47,15.1,1.27,22.66.33l1.97,14.97-37.88,7.96-11.81-56.49c.52-2.78,31.6-8.94,36.15-10.32,1.26.32,1.51,1.99,1.9,3.06,1,2.77,3.95,13.52.98,14.62-4.91,1.82-12.65.34-16.16,5.83s-2.31,15.66,2.2,20.02Z"/>
  <path class="cls-3" d="M161.11,191.33c-1.67,8.9-.89,17.98-2,27-8.34,2.65-12.33,13.21-18.03,19.47s-11.85,9.6-18.48,14.52c-1.84-24.53,14.23-46.15,33.76-59.25,2.04-1.37,3.97-1.29,4.75-1.74Z"/>
  <path class="cls-21" d="M344.06,406.38c2.88,7.41,5.56,15.4,6.09,23.41.25,3.71.46,20.18-4.55,20.6l-23.33-10.21-3.23-20.27c4.89.18,23.03-14.92,25.02-13.53Z"/>
  <path class="cls-21" d="M285.11,425.33l1.86,17.83c-4.41,2.29-18.46,16.03-22.85,13.73-7.44-9.05-7.57-21.51-9.01-32.55,9.97,1.06,20.06,2.26,29.99.99Z"/>
  <path class="cls-1" d="M516.4,446.03c-.52-.42-3.42-4.62-3.29-5.16,10-6.65,17.46-15.78,22.19-26.85.78-1.83,1.29-8.47,3.3-7.68.43.17,7.31,5.04,7.58,5.42,3.8,5.27-3.94,18.1-7.55,22.58s-16.48,16.34-22.22,11.68Z"/>
  <path class="cls-1" d="M505.12,431.33c.19-4.94-3.99-7.59-6.01-11.47,6.6-4.42,15.08-10.98,16.77-19.27.89-4.37-1.82-8.77,3.72-9.35,13.73-1.43,5.24,19.1,1.34,25.4-1.29,2.08-13.63,16.7-15.81,14.68Z"/>
  <path class="cls-3" d="M502.11,374.33c-.45-2.61.38-1.55,1.43-2.09,6-3.09,16.31-5.72,22.99-4.82,8.46,1.15,16.57,10.1,10.44,18.26-3.06,4.06-5.29-2.86-9.28-4.43-5.75-2.27-10.9.61-13.88-.08-2.4-.56-6.91-8.51-11.7-6.85Z"/>
  <path class="cls-9" d="M329.11,358.34c-13.82,16.24-35.95,15.93-49-1,16.66,4.61,32.3,6.81,49,1Z"/>
  <path class="cls-20" d="M532.12,454.35c7.15-1.93,11.14-9.29,16.41-14.1l7.57-11.91c4.14,12.64-9.35,37.62-23.98,26Z"/>
  <path class="cls-12" d="M290.11,289.33c-23.27,1.57-37.86,18.47-62.38,15.88-7.83-.83-15.13-4.88-22.95-5.77-3.56,1.11-2.66,9.43-2.68,12.4l5,17.49c-6.13-9.36-9.13-21.24-4.92-31.92,1.56-1.35,19.46,5.36,23.53,5.81,22.44,2.5,29.57-6.39,48.4-12.39,4.22-1.34,12.98-4.83,16-1.5Z"/>
  <path class="cls-18" d="M307.08,423.35c1.43,5.03,5.76,19.87-3.36,18.98-7.24-.7-6.52-12.52-6.61-18l9.97-.98Z"/>
  <path class="cls-19" d="M208.11,172.33c37.06-12.2,77.96-4.14,114.64-18.68,3.25-.26,10.96,6.02,13.36,8.68-3.35-2.33-8.23-4.37-11.74-6.85-4.22.3-8.17,1.88-12.26,2.85-35.31,8.29-69.81,5.93-104,14Z"/>
  <path class="cls-10" d="M312.11,158.33c.49,2.46-1.09,2.21-2.77,2.69-21.44,6.15-43.77,5.04-65.73,7.32-12.09,1.26-23.84,3.86-35.68,6.34-1.46.31-3.86,1.56-4.83-.34,1.65-.44,3.76-1.71,5-2,34.19-8.07,68.69-5.71,104-14Z"/>
  <path class="cls-3" d="M151.11,242.33l-8,20.52,3,1.48c-.77.52-1.35,1.66-2.5,1.83-3.19-3.88-6.64-3.87-11-4.85-1.54-.35-1.75.68-1.49-1.96,7.28-3.25,15.34-10.57,19.99-17.02Z"/>
  <path class="cls-10" d="M335.11,394.33c-2.61,1.97-5.29,4.21-8,6-21.9,12.05-46.29,8.42-68-2-.85-.51-2.09-1.39-3-2l-2-1c-.98-.55-1.81-3.14-5-2,.32-1.04-.87-2.51,1.39-1.91,3.19.85,8.7,5.22,12.23,6.79,15.94,7.08,34.51,11.06,51.6,5.84l20.78-9.72Z"/>
  <path class="cls-12" d="M377.11,525.33l-17-69c1.2-.09,1.66,1.58,2.06,2.44,6.16,13.52,15.09,50.22,15.9,64.95.04.7-.97,1.46-.96,1.6Z"/>
  <path class="cls-12" d="M519.11,318.33c-3.75-5.95-12.95-56.15-14.7-66.79-.5-3.05-1.07-4.5-.3-7.21l15,74Z"/>
  <path class="cls-7" d="M234.11,142.33c-.41-3.48,1.1-1.39,2.79-1.3,15.36.85,34.4.53,49.58-1.83,3.51-.55,6.68-.03,7.63-3.87.37.71,1.59,1.57,1.98,2.5-.15,1.91-18.73,4.1-21.66,4.39-13.7,1.36-26.68.66-40.32.1Z"/>
  <path class="cls-12" d="M281.11,299.33c-4,3.72-10.85,6.45-16.02,8.48-15.95,6.27-31.94,10.25-48.98,5.52,7.69-.7,15.41.82,23.49-.01,16.15-1.66,27.16-9.69,41.51-13.99Z"/>
  <path class="cls-14" d="M380.11,532.33c2.83,17.06,4.84,37.69,6,55h-2c-1.13-18.75-4.05-36.52-6-55h2Z"/>
  <path class="cls-19" d="M406.11,305.33c-.06,7.65-4.32,13.73-9.96,19.51-16.1,16.51-38.72,18.3-59.08,8.02-5.28-2.67-10.37-9.93-15.71-2.54l-5.26,2c3.33-2.1,6.17-4.95,9.46-7.09,6.31,1.83,11.35,6.2,17.56,8.58,26.08,9.98,55.24-.57,62.98-28.48Z"/>
  <path class="cls-12" d="M343.11,302.33c-13.5,9.75-39.88,9.58-53-1l6.78,2.72c15.88,5.7,30.76,3.79,46.22-1.72Z"/>
  <path class="cls-19" d="M259.11,532.33h-1c-1.75-12.69-5.38-25.69-8.35-38.16-.35-1.45-1.51-3.9.35-4.84,4.12,14.51,6.77,28.08,9,43Z"/>
  <path class="cls-12" d="M327.11,400.33c-21.64,14.33-46.72,10.69-68-2,21.71,10.42,46.1,14.05,68,2Z"/>
  <path class="cls-7" d="M195.11,141.33c.7-2.28,2.58-1.95,4.45-2.06,9.95-.57,20.11.63,30.07,1.06,2.46.11,3.26-.71,1.48,2-4.55-.16-9.16-.83-14-1l-.5-.98-.5.98c-2.33-.08-4.67.07-7,0l-.5-.98-.5.98c-4.32-.1-8.68.04-13,0Z"/>
  <path class="cls-12" d="M242.11,424.33c5.7,10.1,5.3,37.01,14.34,42.64,8.46,5.26,14.63.32,22.17-3.63l12.49-8.01c-6.28,4.41-19.2,15.6-26.58,15.95-17.53.82-20.2-34.77-22.42-46.95Z"/>
  <path class="cls-12" d="M225.11,345.33l36,12c-14.43-1.75-23.73-4.04-36-12Z"/>
  <path class="cls-14" d="M259.11,534.33l1,2c.15,1.96-.21,4.07,0,6l1,2c.1.98-.08,2.01,0,3l-.99,1.49.99.51c.12,1.65-.09,3.34,0,5l1,2c.29,7.15-.24,14.38.04,21.54l-2.04,15.46c-.09-7.85,0-15.89,0-23.5v-20c0-3.98-1.37-12.9-2-17.5h1c.09.63-.06,1.35,0,2Z"/>
  <path class="cls-12" d="M325.11,375.33c-12.46,9.69-30.73,8.8-43-1,6.82,1.85,12.15,5.51,19.46,6.03,8.92.64,15.38-2.32,23.54-5.03Z"/>
  <path class="cls-12" d="M386.11,587.33c.56,8.34.17,16.91.95,25.27-2.4,1.46-4.61,7.12-6.22,8.49-.55.47-1.6.11-1.73.24,1.13-3.27,5.25-5.74,5.96-9.54,1.19-6.4-.54-17.5-.96-24.46h2Z"/>
  <path class="cls-10" d="M387.11,267.33c.7,9.02.81,13.94,0,23-.03.33,0,.67,0,1-.01,1,0,2,0,3-3.27-.68-7.93-4.45-11-6l9.99,3.99c1.17-1.31-1.62-22.56,1.01-25.99.03.33-.03.67,0,1Z"/>
  <path class="cls-14" d="M258.11,613.33c6.04,2.94,12.22,6.54,18.33,9.17,4.29,1.85,15.61,7.02,19.43,7.65,5.23.86,9.65-5.02,14.25-6.82-2.9,2.78-8.86,8.92-13.03,8.59-4.49-.35-20.37-7.42-25.35-9.72-4.09-1.89-11.94-4.77-13.62-8.88Z"/>
  <path class="cls-19" d="M76.11,648.33c14.82,4.52,28.27-.44,41-8-12.06,9.96-26.06,14.7-41,8Z"/>
  <path class="cls-14" d="M387.11,267.33c3.03-.56,1.92,1.53,2,3.45.3,7.64-.23,15.34.01,22.98.11.91-1.42.69-2.01.57,0-1-.01-2,0-3l.98-.5-.98-.5c.81-9.06.7-13.98,0-23Z"/>
  <path class="cls-14" d="M283.11,345.33c.56,3.03-1.53,1.92-3.45,2-6.82.27-14.77.41-21.41-.69-1.79-.29-3.72.37-3.13-2.31,10.47,2.22,17.39,2.34,28,1Z"/>
  <path class="cls-12" d="M349.11,298.33c.45-4,5.14-3.51,5.09-7.91l2.31-.06,30.6,14.97c-11.83-1.4-21.38-11.27-32.88-12.88-.93,4.03-1.84,4.39-5.12,5.88Z"/>
  <path class="cls-12" d="M405.11,302.33c-4.32,3.5-11.74,3.4-17,3,4.55-.82,11.46-3.32,15.7-3.75.81-.08,1.12.69,1.3.75Z"/>
  <path class="cls-7" d="M193.11,141.33c-5.68,1.12-11.27.99-17,2-.56-3.22,1.63-1.72,3.5-1.95,5.94-.76,8.7-.09,13.5-.05Z"/>
  <path class="cls-12" d="M228.11,420.33c3.55-2.51,8.34,1.85,12.35.98,1.28.13.46,1.8.65,2.02-4.54-.05-8.73-1.82-13-3Z"/>
  <path class="cls-12" d="M339.11,363.33c-3.15,6.05-7.74,7.92-13,12-.15-3.15,4.4-4.09,5.71-5.29,2.01-1.86,3.43-6.45,7.29-6.71Z"/>
  <path class="cls-14" d="M257.11,613.33c-.27-.17-.76-.07-.92-.59l2.92-11.41c0,.1.78.45.62,1.96-.37,3.25-2.64,6.61-2.62,10.04Z"/>
  <path class="cls-12" d="M333.11,601.33l6.98-8.99c.89,3.06,4.9,4.28,7.55,6.97,1.3,1.31,1.7,3.17,2.46,4.03-3.1.13-6.93-6.79-7.71-7.01-6.59-1.89-5.22,2.79-7.57,4.77-.56.47-1.59.12-1.72.24Z"/>
  <path class="cls-19" d="M53.11,626.33c-.12,3.32,1.21,5.05,2,8-.16-.14-1.28.35-1.79-.18-.38-.39-2.55-7.36-2.21-7.82h1.99Z"/>
  <path class="cls-19" d="M53.11,625.33c.31-.93.63-1.52,1.65-1.81l4.7-.23c1.87.47.58,2.9.65,3.05-1.62-2.73-4.4-.87-7-1Z"/>
  <path class="cls-12" d="M377.11,526.33c2.46-.99,2.6,3.57,3,6h-2c-.22-2.04-.94-4.02-1-6Z"/>
  <path class="cls-14" d="M386.11,258.33h2c-.22,2.19.9,5.6-1,7-.26-2.56-.64-4.56-1-7Z"/>
  <path class="cls-12" d="M283.11,298.33c.18-.29-.29-1.62.07-1.88,3.42-2.51,3.64,1.4,3.93,1.88h-4Z"/>
  <path class="cls-14" d="M259.11,600.33c-.02-1.87-.64-4.94,1-6,.02,1.57,1.8,3.91-1,6Z"/>
  <path class="cls-14" d="M315.11,619.33c-.44.49.13,3.25-4,3,1.14-1.18,1.49-3.15,4-3Z"/>
  <path class="cls-12" d="M268.11,362.33c2.84.47,4.4,3.89,6.41,5.63,1.58,1.38,4.7,3.88,6.59,5.37-3.32-1.15-11.5-8.2-13-11Z"/>
  <path class="cls-12" d="M342.11,359.33c-.01,1.46-.6,2.52-2,3,.26-.59-.4-2.35.1-2.92.36-.41,1.63.09,1.9-.08Z"/>
  <path class="cls-12" d="M348.11,299.33l-3,2c.23-.28-.25-1.79,0-2,.36-.3,2.29.26,3,0Z"/>
  <path class="cls-12" d="M266.11,359.33c.17.16,1.46-.32,1.88.1.45.44-.05,1.58.12,1.9h-2s0-2,0-2Z"/>
  <path class="cls-12" d="M352.11,605.33c1.6,1.86,4.19,2.91,4,5-.58-.58-4.23-1.37-4-5Z"/>
  <path class="cls-13" d="M150.11,287.33c-1.39.48-1.06,1.58-4.04.58-1.49-.5-5.17-3.25-2.96-3.58,1.27,2.64,4.32,3.2,7,3Z"/>
  <path class="cls-12" d="M357.11,611.33c4.81,5.03,9.8,10.82,13,17l-13-17Z"/>
  <path class="cls-19" d="M61.11,640.33c-1.39-1.2-1.5-1.53-2-2l2,2Z"/>
  <path class="cls-12" d="M256.11,396.33c-.2-.13-1.32-.61-2-1l2,1Z"/>
  <path class="cls-19" d="M74.11,647.33l-9.75-3.8c-1.23-.2-1.72-1.8-2.25-2.2,4.02,1.92,7.97,4.1,12,6Z"/>
  <path class="cls-12" d="M328.11,606.33c-1.32,1.51-3.14,4.66-4.95,6.52-1.71,1.75-3.43,4.18-6.05,4.48,3.64-3.66,7.62-7.08,11-11Z"/>
  <path class="cls-12" d="M292.11,291.33l-.98,1.02c-.17-.61.17-1.65-.02-2.02l1,1Z"/>
  <path class="cls-12" d="M407.61,300.33c.65.33.65.67,0,1v-1Z"/>
  <path class="cls-12" d="M375.11,625.33l2-2c-.55.47-1.07,1.24-2,2Z"/>
  <path class="cls-19" d="M58.11,637.33c-.32-.34-.66-.68-1-1l1,1Z"/>
  <path class="cls-12" d="M265.11,358.33l-2-1c.06,0,.28-1,1.01-.56.68.41.82,1.46.99,1.56Z"/>
  <path class="cls-5" d="M217.11,141.33c-.33-.01-.67.01-1,0l.5-.98.5.98Z"/>
  <path class="cls-5" d="M209.11,141.33c-.33,0-.67,0-1,0l.5-.98.5.98Z"/>
  <path class="cls-16" d="M227.87,184.59c11.43-1.64,27.32,1.16,37.16,7.32,3.47,2.18,8.3,5.02,6.91,9.71-2.06,6.95-19.91-3.07-25.58-4.04-9.76-1.66-21.22-.79-29.58,4.91-3.97,2.7-7.22,9.35-12.94,7.67-6.2-1.83,1.2-12.2,3.74-14.87,4.12-4.33,14.38-9.85,20.3-10.7Z"/>
  <path class="cls-16" d="M253.89,233.62c6.54-.69,13.03.48,18.91,3.54,3.97,2.06,13.34,9.21,10.85,14.18-2.88,5.75-13.12-2.28-17.53-3.5-5.66-1.56-11.2-2.09-16.69.31-2.93,1.28-12.74,11.32-14.33,2.67-1.98-10.74,10.13-16.29,18.8-17.2Z"/>
  <path class="cls-16" d="M351.77,227.63c12.65-.67,19.71,27.08,6.41,29.28s-20.19-28.55-6.41-29.28Z"/>
  <path class="cls-16" d="M138.11,290.33l6,11c.05.32-.03.67,0,1,.51,6.23,2.38,12.74-7,12-4.67-7.05-3.64-8.55-6.26-15.24-4.07-10.38-18.13-.9-18.68-8.24-.49-6.43,14.42-7.48,19-6.08,2.63.81,4.37,4.13,6.95,5.55Z"/>
  <path class="cls-16" d="M199.21,263.24c-4.74-6.98,18.12-10.95,19.87-5.33,1.99,6.39-18.56,7.27-19.87,5.33Z"/>
  <path class="cls-16" d="M225.11,266.35c1.58,6.22-16.31,12.55-16.79,6.5-.28-3.62,13.29-9.48,16.79-6.5Z"/>
  <path class="cls-17" d="M313.11,493.33c-.35-.3-.69-.66-1-1-2.64-5.41-3.85-10.05-2-16,.28-.32.67-.78,1-1,4.92.27,8.49-1.68,11.2,3.3,4.33,7.97,1.67,19.28-9.2,14.7Z"/>
  <path class="cls-19" d="M313.11,493.33c10.87,4.58,13.53-6.73,9.2-14.7-2.71-4.98-6.28-3.04-11.2-3.3,9.91-6.74,17.94,7.96,13.41,15.92-3.29,5.79-6.6,6.15-11.41,2.08Z"/>
  <path class="cls-19" d="M312.11,492.33c-4.76-5.29-7-10.24-2-16-1.85,5.95-.64,10.59,2,16Z"/>
  <path class="cls-19" d="M262.11,556.33l-1-2c0,.11.93.22,1,2Z"/>
  <path class="cls-19" d="M261.11,549.33l-.99-.51.99-1.49c.06.66-.05,1.34,0,2Z"/>
  <path class="cls-19" d="M261.11,544.33l-1-2c.01.11.83.24,1,2Z"/>
  <path class="cls-19" d="M260.11,536.33l-1-2,1,2Z"/>
  <path class="cls-13" d="M144.11,301.33l-6-11c.05.03.55-1.1.82-.9,2.77,2.05,4.72,8.79,5.18,11.9Z"/>
  <rect class="cls-13" x="143.12" y="323.34" width="1.99" height="1.99"/>
  <path class="cls-17" d="M387.11,291.33c0-.33-.03-.67,0-1l.98.5-.98.5Z"/>
</svg>