<?xml version="1.0" encoding="UTF-8"?>
<svg id="Layer_1" data-name="Layer 1" xmlns="http://www.w3.org/2000/svg" viewBox="0 0 639.25 843.65">
  <defs>
    <style>
      .cls-1 {
        fill: #223650;
      }

      .cls-2 {
        fill: #fbeed7;
      }

      .cls-3 {
        fill: #f2f0e3;
      }

      .cls-4 {
        fill: #db453e;
      }

      .cls-5 {
        fill: #f7d0a7;
      }

      .cls-6 {
        fill: #22354f;
      }

      .cls-7 {
        fill: #f2e1b6;
      }

      .cls-8 {
        fill: #13192f;
      }

      .cls-9 {
        fill: #0b1128;
      }

      .cls-10 {
        fill: #22364f;
      }

      .cls-11 {
        fill: #fdefd8;
      }

      .cls-12 {
        fill: #16233c;
      }

      .cls-13 {
        fill: #16253c;
      }

      .cls-14 {
        fill: #fceed7;
      }

      .cls-15 {
        fill: #c0413e;
      }

      .cls-16 {
        fill: #10172c;
      }

      .cls-17 {
        fill: #c1423f;
      }
    </style>
  </defs>
  <path class="cls-13" d="M355.97,10.46c21.77,5.95,49.07,19.02,68.25,32.03,2.39,1.62,5.22,5.71,8.75,5.97l1,1c-.04,2.33,4.6,5.21,7,6,2.47,2.35,4.65,4.53,7,7,4.44,8.21,13.8,14.13,13.06,24.52-7.88,29.43-18.62,61.63-20.1,91.94-.18,3.73-.07,5.27,1.04,8.55.09.28.73.65,1,1,.14.18-.32,1.24.21,1.76.74.71,9.87,3.31,12.14,4.38,14.53,6.87,30.01,16.77,41.36,28.15,1.35,1.36,1.52,4.93,5.28,5.71.3.35.7.64,1,1-.52,3.05,3.78,5.89,4.94,7.78,6.11,9.89,11.54,23.68,13.1,35.73.24,1.87-1.26,4.06,1.96,3.5.21,3.66.26,8.37,0,12-3.19-.58-1.67,1.59-2.02,3.43-2.54,13.35-7.95,24.2-17.79,33.49-5.96,5.64-13.71,10.48-20.15,15.64-.54,1.75.29,1.9,1.03,2.84,1.66,2.12,6.38,6.26,8.92,7.59.29.36.73.62,1,1,11.99,19.33,10.9,39.64,6,61-.07.32.07.68,0,1-3.49,3.33-3.84,8.78-5.72,12.75-.6,1.28-4.98,3.07-2.28,5.25-11.05,17.78-27.25,29.96-48.83,31.17l-8.76,25.85c73.37,38.57,177.85,88.56,201.3,175.77,4.39,16.32,6.6,23.19-4.74,36.69-40.49,48.17-123.98,91.18-182.97,111.53-.89-1.93-3.2-.43-4.52-.03-16.11,4.88-32.37,8.86-48.5,13.56-1.66.48-3.55-.19-2.98,2.47-4.93,1.11-10.03,2.04-15,3-.97-1.87-3.51-.81-5.04-.55-7.29,1.24-14.9,2.38-21.96,4.55-.65.07-1.35-.07-2,0-13.42,1.38-27.88,3.38-41,4-29.92,1.43-67.51-1.53-97-7-1.93-.36-5.91-1.76-8.98-2.43-35.57-7.65-66.5-18.95-100-35.09-1.02-.49-3.41-2.5-4.01-.49-24.58-12.94-48.03-27.6-70.32-44.18-5.59-4.16-18.16-12.32-22.23-16.77-6.17-6.76-4.49-16.14-3.19-24.28,4.71-29.44,22.72-72.17,38.32-97.68,20.41-33.4,48.35-56.76,80.31-78.58-4.27-5.98-8.9-11.77-13.12-17.78-2.56-3.64-6.06-11.76-8.75-14.25s-11.58-5.13-15.93-8.07c-14.87-10.02-26.22-28.84-29.09-46.41,2.17-7.6-1.7-15.86,1.01-24l3.26.24,5.74,2.76c5.76,4.01,10.04,8.59,17.95,6.92.32-.93-.12-2.08.05-2.92.46-2.27.9-4.91-1-7,0-.33.01-.67,0-1-1.73-38.32-1.95-65.12,7.9-102.6.63-2.4,2.25-8.16,1.1-10.4,4.48-13.68,9.86-25.96,17.06-38.43-21.24-10.85-54.99-48.2-41.27-73.27,7.57-13.84,22.98-10.12,35.2-6.79,14.59,3.98,28.8,9.82,43.52,13.48.93-2.86,1.04-6.03,1.48-8.98,2.98.59,1.8-1.44,2.14-3.3,7.37-39.96,4.73-91.66.85-132.19-.33-3.47-.88-8.28-2-11.5.28-.95.65-1.31,1-2l3-4c11.93-13.79,38.75-25.39,56-31,1.01,1.96,3.32.67,4.78.29,48.03-12.21,96.92-14.49,145.22-1.29ZM181.97,157.46c-2.81.77-11.73,1.46-12.83,4.67l-6.06,46.23c8.03,1.43,16.27,3.31,24.41,4.09,13.89,1.33,31.1,1.76,45.03,1.05,63.81-3.22,122.59-36.45,187.46-31.05-20.89-14.02-51.01-27.02-76-30.99-1.22-.19-2.72.14-4,0-.33-.04-.67.03-1,0-2.42-1.84-6.19-1.5-9-2-.32-.06-.68.06-1,0-1.48-.27-2.76-.74-5-1-.33-.04-.67.04-1,0-.88-.1-2.86-.8-5-1-.66-.06-1.34.05-2,0-3.99-1.76-9.49-1.81-14-2-.66-.03-1.34.03-2,0-25.52-5.08-51.73-2.75-77.38.12-12.61,2.31-24.6,4.94-36.64,9.36-1.54.56-3.33.62-3.97,2.53ZM303.97,231.46c-.33.02-.67-.02-1,0-1.67-1.06-3.52-1.16-5.45-1.03-13.28.94-27.45,4.46-40.92,5.19l-.64.83c-36,3.02-71.66,6.29-106.99-2.97-.22.59.17,1.65-.01,1.97-1.09,1.93-2.06,1.97-3,3-2.64,2.9-6.94,6-8,10-.33.34-.66.67-1,1-2.23,2.21-1.74,1.37-4,5-.64,1.03-1.39,2.01-2,3l-7.31,8.26-.68,2.73c.65-.04,1.37.1,1.99,0,2.48-.39,5.61-2.53,8.59-2.91,12.66-1.64,25.25,1.32,34.45,10.38,4.75,4.67,11.66,17.04,2.95,21.02-6.59,3.01-9.42-5.21-13.98-8.99-8.22-6.83-15.29-8.35-25.36-4.34-4.45,1.77-9.13,6.19-12.6,7.4-1.94.68-4.51.04-6.05.94-1.66.97-2.22,4.89-2.99,6.51-2.3-.06-2.7,1.26-3.51,2.99-15.93,33.88-18.98,89.97-11.49,126.01.25,1.21,1,2.98,1,4,0,.21-1.93,2.08-1,3.99,4.73,1.25,4.97-1.48,7-2.99,9.39-7.03,19.23-14.47,30.89-17.1-.22-6.93-1.36-11.15.4-18.11,3.88-15.33,26.46-34.11,38.69-44.31,3.12-2.6,7.03-6.96,11.07-5.04,4.34,2.97-7.61,18.89-10.09,22.03-11.55,14.64-37.14,30.33-17.37,51.43,16.17,17.27,41.92,4.37,55.34-9.47,1.78-1.84,1.65-5.75,5.7-6.18,5.79-.61,5.68,5.81,8.02,6.58,2.92.97,12.88.56,17.57,1.43,5.42,1.01,10.42,3.51,15.77,4.72-2.98-6.45-6.98-12.84-5.72-20.25,1.42-8.3,7.21,3.03,8.74,4.74,8.82,9.82,16.18,14.45,30.03,12.08,4.28-.73,18.28-8.41,20-7.13,5.2,3.89-5.35,14.78-8.05,17.57-3.34,1.62-6.13,3.48-9.61,4.91-.92.38-2.7-.07-.39,1.09-.52,2.38,2.01,2.4,3.74,2.72,13.78,2.57,24.1,2.23,36.26-3.72.68-.33.91-.64,2-1l5,2c.19.51.85.96,1,2-1.54,5.88-1.94,11.92-3.72,17.78-1.81,5.98-5.74,14.38-8.28,20.22-.12.28.12.71,0,1-2.48.18-4.87,3.47-5,6-6.75,7.73-15.08,14.53-24.31,19.19-4.48,2.26-19.55,6.27-21.24,7.76-1.56,1.36-6.88,14.01-10.03,17.97-22.69,28.58-78.31,34.95-96.61-1.22-4.15-8.21-3.16-12.23-5.03-19.97-2.02-8.36-12.46.06-16.78,2.28-9.41,2.46-18.31,3.91-28,2.01-.29,3.13,2.78,5.19,4,6.99,34.24,50.67,97.16,78.05,155.36,50.86,4.6-2.15,25.1-14.74,27.22-14.87,7.57-.46-1.48,11.58-2.58,15,49.52-3.45,95.55-42.16,114.47-87.02,1.36-3.23,5.41-12.74,5.53-15.58.14-3.45-6.25-6.21-4.59-12.4,2.33-8.69,10.52.19,16.04.04,23.99-.63,38.71-19.01,47.55-39.03,6.12-13.86,7.41-29.2.87-43.43-.31-.68-2.89-5.09-3.11-5.32-.59-.62-1.63-.14-1.77-.26-16.23-14.8-33.07-7.37-47.53,5.97-3.08,2.84-13.18,16.77-17.39,13.94-2.3-5.52-.84-10.57.91-15.88-15.99-6.13-30.11-21.92-25.98-40.04,3.08-2.99,10.32,9.58,12.02,11.47,5.89,6.57,12.81,12.31,20.89,16.06l24.07-14.52c-24.01-3.9-51.4-20.54-56.72-45.79-.86-4.08-3.84-17.08,1.72-18.22.09.14,1.83.04,3.01,1.46,13.91,16.73,14.88,28.11,38.01,39.03,11.23,5.3,23.65,4.65,30.99,16.51v-15.5c0-1.89-2.08-8.83-2.74-11.26-9.43-34.75-35.2-54.01-68.26-64.24-3.01-.93-5.87-2.23-9-3,.59-2.83-1.39-1.88-3.15-2.3-22.01-5.16-46.74-7.03-69.38-5.74-2.57.15-6.3.61-8.46,2.04ZM268.97,440.46c-6.06-3.67-12.63-6.49-19.2-9.1-6.14-2.43-10.63-3.08-17.07-4.96-.87-.25-.72-1.92-1.37-1.99-.39-.04-7.19.2-7.63.26-10.57,1.59-9.49,7.44-16.39,12.63-13.82,10.41-35.57,11.2-51.02,4.33-5.38-2.39-9.92-6.82-15.33-9.17-.6-.66-1.19-.67-2-2-1.19-1.96.81-2.92-5.06-1.55-4.61,1.07-5.78,3.35-8.94,5.55-9.99,4.38-18.49,11.63-30.62,12.88-10.03,1.03-13.59-1.21-22.4-3.43-1.72-.43-1.53-.81-2.98.55s2.14,7.28,2.24,9.26c3.1,7.84,8.42,16.16,14.76,21.74l-.77.76c1.74,2.29,4.05,1.83,4.77,2.24.64.37,1.34.65,2,1-.11,2.36,1.4,2.6,2.96,3.54,30.81,18.51,61.49,7.88,84.04-15.54,1.59.34,3.35.89,4.73,1.72,12.43,7.45,14.33,13.4,30.27,17.28.58.14,1.39-.13,2,0-.47,3.24,5.86,3.88,8.59,4.05,1.41.09,2.28-1.06,2.41-1.05.33.03.67-.03,1,0-.28,4.86-.58,2.04,1.76,2.3,24.83,2.74,47.33,3.32,68.24-11.3.36-.25.65-.81,1-1,.48-.26,2.29.42,2.9-.12.43-.39-.06-1.69.1-1.88.31-.38.67-.66,1-1,2.99-.18,4.31-3.04,6-5,.31-.36.72-.66,1-1l3.36-2.26,2.64-5.74c1.27-2,8.27-13.74,6.99-14.99-15.95,3.92-30.82,1.74-46.2-3.3-2.89-.95-5.6-2.9-7.79-3.71ZM428.8,587.29l7.17-59.34c-1.53-5.87-.02-15.18-6.98-17.48-.91,1.91-3.57,5-5.02,6.49-63.39,64.8-111.32,169.08-126.71,258.29-2.04,11.82-4.68,26.93-5.28,38.72-.11,2.22-.79,11,1.55,11.47,5.64,1.13,9.42-18.84,10.95-22.96,22.49-60.59,57.04-115.39,99.97-163.02,2.92-3.24,6.91-5.73,9.48-9.55.35-1.53-7.76-6.49-9.44-7.47-2.74-1.59-12.82-5.45-14.27-7.23-.59-.73-.67-2.79-1.38-4.1-2.01-3.72-4.09-3.87-2.83-9.92,1.16-5.57,36.29-13.22,42.78-13.89ZM254.97,512.46c-13.06.23-25.47,5.97-38.51,6.98-9.2.71-18.35-1.03-27.48-.49,14.31,19.17,42.47,14.99,59.47,1.48,1.03-.81,7.68-6.96,6.52-7.97ZM138.73,554.74c-3.14-1.51-6.71,3.8-8.72,6.47-8.6,11.41-14.34,25.21-23.96,35.87,4.88,5.71,10.83,11.25,16.92,15.87l-2.03,1,2.03,4.48-29.98,17.53c-3.39,2.84,1.37,34.65-.05,41.03,2.09,30.01,6.84,59.58,15.05,88.46,1.35,1.68,1.8-.15,1.98-1.5.39-2.99.02-6.98.4-9.84,5.8-42.92,15.93-84.97,26.9-126.88,3.95-15.08,6.7-27.73,10.01-42.99.8-3.67,5.63-16.55,4.23-18.79-.99-1.57-9.7-7.76-11.79-9.05-.63-.39-.72-1.56-.98-1.68ZM358.97,567.46l-32.09,11.64c-1.23,10.07-3.44,20.1-4.62,30.17-.19,1.6-1.15,4.16.71,5.19-2.37,10.27-14.68,45.28-25.71,47.79-16.87,3.84-41.87-16.25-53.83-26.83-12.11,4.56-25.25,4.4-36.78-1.8-8.63,5.51-17.37,11.52-26.67,15.84l-16.49,3.99c-5.91.05-8.94-3.1-13.51-4.99-.27-.11-.67.09-1,0-.2-.06-.2-1.23-.98-1-.72,2.01-.81,3.91-1.02,6-.03.33.04.67,0,1-1.41,1.54-1.99,4-2.51,6-3.12,12.05-4.99,24.18-6.49,36-.08.64.09,1.36,0,2-2.99-.59-1.8,1.45-2.14,3.3-3.7,19.74-7.93,41.81-9.86,61.7-.52,5.36-2.65,26.35.71,29.06.48.39,6.52,3.77,7.29,1.94,3.17,1.38,12.37,4.02,14,6,.15.19-.36,1.54.09,1.87.62.45,2.87-.03,4.14.38,12.21,3.91,22.78,7.69,33.78,10.22,28.79,6.62,57.9,12.14,87.42,11.56-.68-8.26,4.1-17.84.58-25.02,1.12-8.37,2.9-16.61,4-25,.04-.33-.04-.67,0-1,1.74-3.89,2.34-8.79,3-13,.05-.32-.04-.67,0-1,1.59-.94,1.64-2.43,2-4,10.82-46.56,26.75-94.58,48.12-137.38,8.29-16.6,19.08-31.87,27.95-48.06.52-.95,1.78-2.3-.07-2.56ZM199.93,588.52l-34.94-14.04c-5.03,20.19-10.08,42.44-2.06,62.57,3.94,2.74,31.25-14.51,35.53-18.52-2.9-10.35-1.5-19.9,1.46-30ZM308.47,580.46h-19c-6.07,0-8.28,2.91-13.98,5.02-6.11,2.27-13.01,4.93-19.47,5.03l-3.99,29.51c.1,1.66,5.66,5.93,7.46,7.41,9.35,7.65,20.11,13.79,31.87,16.9,14.96-16.8,17.19-40.72,18.44-62.22l-1.34-1.66ZM230.97,620.46l6.34-.15,1.58-1.5,1.07-25.35c-1.32-.04-2.67.03-4,0-3.58-.09-6.78,1.21-9.54,1.11-1.82-.07-1.31-1.91-2.14-2.1-2.64-.59-6.67.26-9.7-.94-9.68,14.89-4.75,34.64,16.38,28.93ZM463.97,786.46l9.93-2.62c-3.33-24.64-5.65-49.02-3.92-73.87.87-12.45,4.25-24.87,2.98-37.51-6.23,8.28-9.97,20.56-11.72,30.77-4.7,27.36-1.64,56.11,2.73,83.24Z"/>
  <path class="cls-3" d="M306.97,841.46c11.69-.43,24.9-1.5,36.51-2.99,1.77-.23,3.45-.25,4.49-2.01.65-.07,1.35.07,2,0,1.31-.13,2.69.13,4,0,.59,2.98-1.44,1.8-3.3,2.14-43.15,7.95-94.18,5.97-137.23-2.12-2.2-.41-3.38.94-1.46-2.02,32.1,5.76,62.27,8.19,95,7Z"/>
  <path class="cls-9" d="M355.97,9.46v1c-48.3-13.19-97.19-10.91-145.22,1.29-1.46.37-3.77,1.66-4.78-.29,46.53-15.13,103-14.73,150-2Z"/>
  <path class="cls-9" d="M145.97,48.46c1.12,3.22,1.66,8.03,2,11.5,3.88,40.53,6.51,92.23-.85,132.19-.34,1.86.84,3.89-2.14,3.3,5.93-39.17,5.75-77.04,2.99-116.49-.6-8.57-2.89-18.59-3.01-27.06-.02-1.62.67-2.29,1.01-3.45Z"/>
  <path class="cls-8" d="M441.97,187.46c-1.1-3.28-1.22-4.82-1.04-8.55,1.48-30.31,12.21-62.5,20.1-91.94.74-10.38-8.62-16.3-13.06-24.52,5.89,6.19,15.32,15.13,15.08,24.5-10.22,32.7-18.55,66.18-21.08,100.5Z"/>
  <path class="cls-16" d="M79.97,422.46c-1.29-1.13-1.72-2.95-1.91-4.59-1.41-12.22-1.51-27.1-1.09-39.41,1.5-.14,1.5-2.86,0-3,1.02-22.44,5.03-44.73,12-66,1.15,2.24-.47,8-1.1,10.4-9.85,37.48-9.62,64.28-7.9,102.6Z"/>
  <path class="cls-8" d="M96.97,795.46c.6-2.01,3,0,4.01.49,33.5,16.14,64.44,27.43,100,35.09,3.08.66,7.06,2.07,8.98,2.43v1c-40.3-7.42-76.91-20-113-39Z"/>
  <path class="cls-9" d="M306.97,840.46v1c-32.73,1.19-62.9-1.24-95-7-.62-.11-1.38.11-2,0v-1c29.49,5.47,67.08,8.43,97,7Z"/>
  <path class="cls-16" d="M447.97,813.46c-18.33,6.32-37.05,11.72-56,16-.57-2.66,1.33-1.99,2.98-2.47,16.13-4.7,32.39-8.68,48.5-13.56,1.32-.4,3.63-1.9,4.52.03Z"/>
  <path class="cls-8" d="M355.97,9.46c22.58,6.12,43.01,15.25,62.75,27.69l14.25,11.31c-3.52-.26-6.35-4.35-8.75-5.97-19.18-13.01-46.48-26.08-68.25-32.03v-1Z"/>
  <path class="cls-16" d="M499.97,413.46c4.9-21.36,5.99-41.67-6-61,5.88,8.08,10.06,16.21,10.98,26.52.98,10.95.1,24.68-4.98,34.48Z"/>
  <path class="cls-16" d="M522.97,288.46c-1.33,18.83-11.3,29.92-24.06,42.46l-13,9.22c-2.57,3.66,4.26,6.69,6.49,9.39.55.67.39,1.7.57,1.93-2.54-1.33-7.26-5.47-8.92-7.59-.74-.94-1.57-1.09-1.03-2.84,6.44-5.16,14.18-10,20.15-15.64,9.83-9.29,15.24-20.14,17.79-33.49.35-1.84-1.17-4.01,2.02-3.43Z"/>
  <path class="cls-8" d="M502.97,229.46c11.19,13.62,18.94,29,20,47-3.22.56-1.72-1.63-1.96-3.5-1.55-12.04-6.99-25.84-13.1-35.73-1.17-1.89-5.46-4.73-4.94-7.78Z"/>
  <path class="cls-9" d="M376.97,832.46c-7.71,1.49-15.13,3.24-23,4-1.31.13-2.69-.13-4,0,7.06-2.17,14.67-3.32,21.96-4.55,1.53-.26,4.07-1.32,5.04.55Z"/>
  <path class="cls-9" d="M52.97,447.46c-.87-5.36-2.27-17.94-.24-22.74,2.85-6.74,7.3-.31,10.24,1.74l-5.74-2.76-3.26-.24c-2.7,8.14,1.16,16.41-1.01,24Z"/>
  <path class="cls-8" d="M442.97,188.46c7.13,2.5,15.07,5.22,21.74,8.72,14.09,7.4,26.78,19.08,37.26,31.28-3.77-.77-3.93-4.35-5.28-5.71-11.34-11.38-26.83-21.28-41.36-28.15-2.27-1.07-11.4-3.67-12.14-4.38-.54-.52-.08-1.58-.21-1.76Z"/>
  <path class="cls-16" d="M491.97,432.46c-2.7-2.19,1.68-3.98,2.28-5.25,1.88-3.97,2.23-9.41,5.72-12.75-1.67,7.2-4.15,11.81-8,18Z"/>
  <path class="cls-16" d="M80.97,430.46c-1.26-.72-.85-1.9-1-3v-1c-.03-1,.02-2,0-3,1.9,2.09,1.46,4.73,1,7Z"/>
  <path class="cls-8" d="M433.97,49.46c2.22.66,4.84,3.94,7,6-2.4-.79-7.04-3.67-7-6Z"/>
  <path class="cls-8" d="M76.97,378.46c.03-1-.05-2,0-3,1.5.14,1.5,2.86,0,3Z"/>
  <path class="cls-9" d="M146.97,46.46c1.16-2.27,1.57-2.35,3-4l-3,4Z"/>
  <path class="cls-8" d="M79.97,427.46c-.11-.82,0-.78,0-1v1Z"/>
  <path class="cls-5" d="M384.97,237.46c3.13.77,5.99,2.07,9,3-2.75,1.58,0,5.38,0,6.5v16c0,2.07-2.34,9.53-1,11.5-5.57,1.14-2.58,14.14-1.72,18.22,5.32,25.25,32.71,41.89,56.72,45.79l-24.07,14.52c-8.09-3.75-15-9.49-20.89-16.06-1.7-1.9-8.94-14.46-12.02-11.47-4.13,18.13,10,33.92,25.98,40.04-1.75,5.31-3.21,10.36-.91,15.88,4.21,2.83,14.31-11.1,17.39-13.94,14.45-13.34,31.3-20.77,47.53-5.97,10.16,15.3,7.57,32.03,4,49-8.84,20.02-23.56,38.4-47.55,39.03-5.52.14-13.71-8.73-16.04-.04-1.66,6.19,4.73,8.95,4.59,12.4-.12,2.84-4.16,12.35-5.53,15.58-18.92,44.86-64.94,83.58-114.47,87.02,1.09-3.41,10.15-15.46,2.58-15-2.11.13-22.61,12.72-27.22,14.87-58.2,27.19-121.12-.19-155.36-50.86l.97-.49-2.95-2.53-.02-1.98h17.5c2.45,0,6.42-2.93,8.5-4,4.31-2.22,14.76-10.64,16.78-2.28,1.87,7.74.87,11.76,5.03,19.97,18.3,36.17,73.92,29.8,96.61,1.22,3.15-3.96,8.47-16.62,10.03-17.97,1.7-1.48,16.77-5.5,21.24-7.76,9.24-4.66,17.57-11.46,24.31-19.19,1.77-2.02,3.88-3.28,5-6,.12-.29-.12-.72,0-1,2.71-2.19,4.44-6.49,5.86-9.64,4.01-8.93,7.5-18.69,6.14-28.36-.15-1.04-.81-1.49-1-2-.11-.3.12-.72,0-1-.03-.07,1.35-.45.07-1.45-4.62-3.61-10.23.95-15.04,1.99-10.09,2.18-17.94.88-28.03.46l5.99-5.99c2.7-2.8,13.25-13.68,8.05-17.57-1.72-1.28-15.72,6.39-20,7.13-13.86,2.38-21.21-2.26-30.03-12.08-1.53-1.71-7.32-13.04-8.74-4.74-1.26,7.41,2.73,13.81,5.72,20.25-5.35-1.21-10.35-3.7-15.77-4.72-4.69-.88-14.65-.47-17.57-1.43-2.34-.77-2.23-7.18-8.02-6.58-4.05.42-3.91,4.34-5.7,6.18-13.42,13.84-39.17,26.73-55.34,9.47-19.76-21.11,5.82-36.79,17.37-51.43,2.48-3.14,14.43-19.06,10.09-22.03-4.04-1.92-7.95,2.44-11.07,5.04-12.23,10.2-34.81,28.98-38.69,44.31-1.76,6.96-.62,11.18-.4,18.11-11.67,2.63-21.51,10.07-30.89,17.1l-4.98,2-1.02-3c0-1.02-.75-2.79-1-4l-2.04-24.46c-.79-35.47,1.59-72.22,17.04-104.54.77-1.62,1.33-5.54,2.99-6.51,1.55-.91,4.11-.27,6.05-.94,3.47-1.21,8.16-5.63,12.6-7.4,10.07-4.01,17.14-2.49,25.36,4.34,4.55,3.79,7.38,12,13.98,8.99,8.71-3.98,1.8-16.35-2.95-21.02-9.21-9.06-21.79-12.02-34.45-10.38-2.98.39-6.11,2.53-8.59,2.91,1.22-4,3.85-7.49,6-11,.61-.99,1.36-1.97,2-3,1.34-1.61,4.01-2.91,4-5,.34-.33.67-.66,1-1,2.98-3.14,5.58-6.39,8-10,.94-1.03,1.91-1.07,3-3,11.61,1.96,22.24,4.03,34,5-.56,3.02,1.53,1.94,3.45,2,15.41.51,30.76-.15,46.09-1,1.92-.11,4.01,1.06,3.46-2,6.76-.43,13.3-1.43,20-2,15.28-1.3,31.86-3.14,47.54-4,1.92-.11,4.01,1.06,3.46-2,26.39-1.38,52.18-.39,78,6ZM330.26,300.15c3.55,2.9,7.15,1.28,7.76-3.15,2.12-15.42-16.04-29.3-29.27-32.83-20.64-5.5-44.27,2.81-60.25,16.31-4.21,3.56-12.74,10.24-7.58,15.52,6.29,6.43,14.22-2.94,20.03-6.07,20.79-11.2,44.03-13.11,63.03,3,2.35,2,4.71,5.93,6.27,7.21ZM130.97,331.46c-1,.74-1.25,1.12-2,2-11.45,13.53-5.18,46.04,12.97,36.43,1.32-.7,1.5-2,2.03-2.43.36-.29.68-.66,1-1,1.37-1.45,2.32-1.49,3.56-3.94,2.89-5.69,3.94-18.7.44-24.06-.27-.42-.78-.68-1-1,.05-3.56-2.72-3.69-3-4-.12-.13.16-1.4-.7-2.01-5.58-3.96-8.17-3.79-13.3.01ZM272.71,329.7c-14.53,2.48-28.34,25.7-19.62,38.14,6.14,8.76,15.27-10.31,24.36-10.41,9.97-.11,16.48,22.6,23.72,8.73,9.04-17.31-8.32-39.89-28.46-36.46ZM318.97,368.45c3.62,1.8,21.05,1.05,21.05-3.48,0-7.5-21.78-4.74-21.05,3.48ZM456.73,367.72c-12.51,1.7-21.68,14.02-24.31,25.69-.91,4.02-3.99,19.47-.46,21.56,14.06,2.59,12.46-18.08,18.58-26.44,8.42-11.5,22.34-.05,25.95-6.05,4.95-8.23-12.08-15.79-19.76-14.75ZM319.76,374.66c-3.1.24-11.28,2.38-10.86,6.28.73,6.72,22.71,8.16,23.01-.85-3.06-2.97-7.64-5.77-12.15-5.43Z"/>
  <path class="cls-11" d="M282.97,755.46h-2c-.13,1.31.15,2.69,0,4-.04.33.05.68,0,1-2.67,3.61-2.44,8.72-3,13-.04.33.04.67,0,1-4.79,15.08-7.02,31.14-6.99,47.01-37.95-.13-74.42-8.17-110.48-19.03-1.32-.4-3.63-1.9-4.52.03-2.63-.79-5-2.47-8-2-1.63-1.98-10.83-4.62-14-6-2.31-1.01-6.93-1.78-7.81-4.69-1.38-4.6,1.06-18.28,1.62-23.86.11-1.07-.84-2.2-.82-2.45,2.31-21.26,8.02-43.53,11-65,.09-.64-.08-1.36,0-2,2.36-13.36,7.45-26.69,9.62-40.05.25-1.56-.63-1.85-.62-1.95.04-.33-.03-.67,0-1,1.72-1.08,2.04-3.11,2-5,.33.09.73-.11,1,0,8.17,10.36,20.04,5.62,30,1,9.31-4.32,18.04-10.33,26.67-15.84,11.53,6.2,24.68,6.36,36.78,1.8,11.96,10.58,36.96,30.66,53.83,26.83,11.02-2.51,23.34-37.51,25.71-47.79,2.03-8.79,4.14-20.83,4.74-29.79.11-1.61-.52-2.71-.75-4.19,11.17-3.07,22.13-6.95,32.01-13.02,1.85.26.59,1.61.07,2.56-8.87,16.19-19.66,31.46-27.95,48.06-21.37,42.8-37.3,90.82-48.12,137.38ZM210.72,665.65c-13,2.48-16.49,30-2.18,30.8,15.85.88,20.43-34.28,2.18-30.8Z"/>
  <path class="cls-17" d="M299.97,145.46c.66.03,1.34-.03,2,0,4.17,2.58,9.49,1.65,14,2,.66.05,1.34-.06,2,0,.85,1.62,3.4.94,5,1,.33.04.67-.04,1,0,.85,1.62,3.4.94,5,1,.32.06.68-.06,1,0,2.43,2.05,6.03,1.75,9,2,.33.03.67-.04,1,0,.41,1.56,3.68,1.5,4,0,24.99,3.97,55.11,16.97,76,30.99-64.87-5.4-123.65,27.83-187.46,31.05-13.93.7-31.14.28-45.03-1.05-8.14-.78-16.37-2.66-24.41-4.09l6.06-46.23c1.1-3.21,10.02-3.9,12.83-4.67,44.82-12.23,71.26-14.41,118-12Z"/>
  <path class="cls-10" d="M428.8,587.29c-6.49.67-41.62,8.32-42.78,13.89-1.26,6.05.82,6.2,2.83,9.92.71,1.31.79,3.37,1.38,4.1,1.45,1.79,11.53,5.64,14.27,7.23,1.68.97,9.79,5.93,9.44,7.47-2.57,3.82-6.56,6.31-9.48,9.55-42.93,47.64-77.48,102.44-99.97,163.02-1.53,4.12-5.31,24.09-10.95,22.96-2.35-.47-1.67-9.25-1.55-11.47.6-11.79,3.24-26.9,5.28-38.72,15.39-89.21,63.32-193.48,126.71-258.29,1.45-1.48,4.11-4.57,5.02-6.49,6.96,2.3,5.45,11.61,6.98,17.48l-7.17,59.34Z"/>
  <path class="cls-14" d="M268.97,440.46c2.19.81,4.9,2.76,7.79,3.71,15.38,5.03,30.26,7.22,46.2,3.3,1.27,1.26-5.73,12.99-6.99,14.99-1.39,2.19-4.27,5.91-6,8-.28.34-.69.64-1,1-1.94,1.53-4.32,3.24-6,5-.33.34-.69.62-1,1-1.47,0-2.51.6-3,2-.35.19-.64.75-1,1-17.24,10.16-37.85,11.76-57.54,11.04-3.96-.15-8.57-1.68-12.46-2.04-.33-.03-.67.03-1,0-3.67-.53-7.49-2.27-11-3-.61-.13-1.42.14-2,0-11.81-5.24-22.39-10.9-31.73-19.98-1.05-.07-2.24-.19-3.27-.02-3.15.54-2.96,2.79-4.48,3.98-29.43,22.98-48.01,27.27-82.52,9.02-.66-.35-1.36-.63-2-1-.54-2.01-3.02-2.13-4-3-6.34-5.58-11.66-13.9-14.76-21.74-.1-1.98-3.74-7.85-2.24-9.26,9.34,4.66,20.04,5.9,30.25,3.75,9.98-2.11,17.62-8.08,25.75-13.75,4.47-1.96,8.9-4.71,14-4,.81,1.33,1.4,1.34,2,2,16.21,17.7,44.49,20.91,64.65,7.63,6.95-4.57,9.23-13.47,18.9-13.66,11.55-.23,32.89,9.74,44.45,14.03Z"/>
  <path class="cls-6" d="M138.73,554.74c.25.12.35,1.29.98,1.68,2.09,1.29,10.8,7.47,11.79,9.05,1.4,2.23-3.44,15.11-4.23,18.79-3.31,15.27-6.06,27.91-10.01,42.99-10.97,41.91-21.09,83.95-26.9,126.88-.39,2.86-.01,6.85-.4,9.84-.18,1.35-.64,3.17-1.98,1.5-8.21-28.89-12.96-58.46-15.05-88.46,1.42-6.38-3.33-38.19.05-41.03l29.98-17.53-2.03-4.48,2.03-1c-6.1-4.62-12.04-10.16-16.92-15.87,9.63-10.67,15.37-24.46,23.96-35.87,2.02-2.68,5.58-7.99,8.72-6.47Z"/>
  <path class="cls-2" d="M393.97,240.46c33.06,10.23,58.83,29.49,68.26,64.24.66,2.43,2.74,9.37,2.74,11.26v15.5c-7.34-11.86-19.76-11.21-30.99-16.51-23.12-10.92-24.09-22.3-38.01-39.03-1.18-1.42-2.91-1.32-3.01-1.46-1.34-1.97,1-9.43,1-11.5v-16c0-1.12-2.75-4.92,0-6.5Z"/>
  <path class="cls-15" d="M308.47,580.46l1.34,1.66c-1.25,21.49-3.48,45.41-18.44,62.22-11.77-3.1-22.52-9.25-31.87-16.9-1.81-1.48-7.36-5.75-7.46-7.41l3.99-29.51c6.46-.11,13.36-2.77,19.47-5.03,5.7-2.11,7.91-5.02,13.98-5.02h19Z"/>
  <path class="cls-17" d="M199.93,588.52c-2.97,10.1-4.37,19.65-1.46,30-4.29,4.02-31.6,21.27-35.53,18.52-8.02-20.12-2.97-42.37,2.06-62.57l34.94,14.04Z"/>
  <path class="cls-1" d="M463.97,786.46c-4.38-27.13-7.43-55.88-2.73-83.24,1.75-10.21,5.49-22.49,11.72-30.77,1.27,12.64-2.11,25.06-2.98,37.51-1.73,24.86.59,49.24,3.92,73.87l-9.93,2.62Z"/>
  <path class="cls-15" d="M230.97,620.46c-21.13,5.71-26.06-14.04-16.38-28.93,3.03,1.21,7.06.35,9.7.94.83.18.32,2.03,2.14,2.1,2.76.1,5.96-1.2,9.54-1.11-.81,1.96,1.92,2,1.89,2.43-.58,7.2-1.44,14.53-.84,21.91-.12.5-5.09,2.4-6.05,2.65Z"/>
  <path class="cls-15" d="M254.97,512.46c1.16,1.01-5.49,7.16-6.52,7.97-17,13.5-45.15,17.69-59.47-1.48,9.13-.54,18.28,1.2,27.48.49,13.04-1.01,25.45-6.75,38.51-6.98Z"/>
  <path class="cls-3" d="M273.97,799.46c-1.07,8.03-.7,16.12-2.56,24.02-21.71-1.29-43.3-3.14-64.65-7.31-17.36-3.4-33.95-8.62-50.79-13.71.89-1.93,3.2-.43,4.52-.03,36.06,10.86,72.54,18.9,110.48,19.03-.02-15.87,2.2-31.93,6.99-47.01-1.1,8.39-2.88,16.63-4,25Z"/>
  <path class="cls-8" d="M273.97,799.46c3.53,7.18-1.26,16.75-.58,25.02-29.52.58-58.63-4.94-87.42-11.56-11-2.53-21.56-6.31-33.78-10.22-1.27-.41-3.52.08-4.14-.38-.44-.33.07-1.68-.09-1.87,3-.47,5.37,1.21,8,2,16.84,5.08,33.43,10.31,50.79,13.71,21.34,4.18,42.94,6.03,64.65,7.31,1.86-7.9,1.49-15.99,2.56-24.02Z"/>
  <path class="cls-8" d="M109.97,298.46c-15.46,32.33-17.84,69.07-17.04,104.54l2.04,24.46c-7.49-36.04-4.44-92.13,11.49-126.01.81-1.73,1.22-3.05,3.51-2.99Z"/>
  <path class="cls-4" d="M299.97,145.46c-46.74-2.41-73.18-.23-118,12,.64-1.91,2.44-1.96,3.97-2.53,12.04-4.42,24.03-7.05,36.64-9.36,25.65-2.87,51.87-5.19,77.38-.12Z"/>
  <path class="cls-8" d="M255.97,236.46v1c-6.7.57-13.24,1.57-20,2-18.93,1.21-33.82,2.57-53,1-11.76-.97-22.39-3.04-34-5,.18-.32-.21-1.38.01-1.97,35.32,9.26,70.99,5.99,106.99,2.97Z"/>
  <path class="cls-9" d="M303.97,231.46c2.17-1.43,5.9-1.89,8.46-2.04,22.64-1.29,47.37.58,69.38,5.74,1.76.41,3.74-.54,3.15,2.3-25.82-6.39-51.61-7.38-78-6-.99.05-2.01-.06-3,0Z"/>
  <path class="cls-16" d="M137.97,698.46c-2.98,21.47-8.69,43.74-11,65h-1c1.93-19.88,6.15-41.95,9.86-61.7.35-1.86-.85-3.89,2.14-3.3Z"/>
  <path class="cls-16" d="M297.97,480.46c-20.9,14.62-43.41,14.04-68.24,11.3-2.34-.26-2.05,2.57-1.76-2.3,3.88.36,8.5,1.9,12.46,2.04,19.69.72,40.3-.88,57.54-11.04Z"/>
  <path class="cls-8" d="M140.97,432.46c5.4,2.35,9.94,6.78,15.33,9.17,15.45,6.87,37.2,6.09,51.02-4.33,6.89-5.19,5.82-11.04,16.39-12.63.44-.07,7.24-.3,7.63-.26.65.07.5,1.73,1.37,1.99,6.43,1.88,10.93,2.53,17.07,4.96,6.57,2.6,13.15,5.43,19.2,9.1-11.56-4.29-32.9-14.26-44.45-14.03-9.67.19-11.96,9.09-18.9,13.66-20.16,13.28-48.44,10.07-64.65-7.63Z"/>
  <path class="cls-8" d="M178.97,467.46c-22.54,23.42-53.22,34.05-84.04,15.54-1.56-.94-3.07-1.17-2.96-3.54,34.51,18.25,53.09,13.95,82.52-9.02,1.51-1.18,1.33-3.43,4.48-3.98v1Z"/>
  <path class="cls-7" d="M302.97,231.46c.33-.02.67.02,1,0,.99-.06,2.01.05,3,0,.56,3.06-1.53,1.89-3.46,2-15.68.86-32.26,2.7-47.54,4v-1c5.8-.49,12.03-.51,18-1l1-1c1.97-.16,4.03.17,6,0l1-1c6.95-.59,14.14-1.54,21-2Z"/>
  <path class="cls-8" d="M480.97,361.46c.13.12,1.17-.36,1.77.26.22.23,2.8,4.64,3.11,5.32,6.54,14.22,5.25,29.57-.87,43.43,3.57-16.97,6.16-33.7-4-49Z"/>
  <path class="cls-9" d="M124.97,434.46c-8.13,5.66-15.77,11.64-25.75,13.75-10.21,2.16-20.9.91-30.25-3.75,1.45-1.36,1.26-.98,2.98-.55,8.8,2.22,12.37,4.46,22.4,3.43,12.13-1.25,20.64-8.49,30.62-12.88Z"/>
  <path class="cls-7" d="M302.97,425.46l-5.99,5.99c10.09.42,17.93,1.72,28.03-.46,4.81-1.04,10.42-5.6,15.04-1.99,1.28,1-.1,1.38-.07,1.45-2.19-1.31-2.63-1.79-5-1-1.09.36-1.32.67-2,1-12.86,3.91-26.95,4.34-40,1-2.32-1.16-.54-.71.39-1.09,3.49-1.43,6.28-3.29,9.61-4.91Z"/>
  <path class="cls-16" d="M137.97,696.46c1.51-11.82,3.37-23.95,6.49-36,.52-2,1.09-4.46,2.51-6-.01.1.87.39.62,1.95-2.17,13.36-7.26,26.68-9.62,40.05Z"/>
  <path class="cls-8" d="M332.97,430.46c-12.15,5.95-22.48,6.29-36.26,3.72-1.73-.32-4.26-.34-3.74-2.72,13.05,3.34,27.14,2.91,40-1Z"/>
  <path class="cls-8" d="M328.97,471.46c2.54-5.84,6.47-14.24,8.28-20.22,1.78-5.86,2.18-11.9,3.72-17.78,1.36,9.67-2.13,19.43-6.14,28.36-1.41,3.15-3.15,7.45-5.86,9.64Z"/>
  <path class="cls-16" d="M347.97,836.46c-1.04,1.76-2.72,1.78-4.49,2.01-11.61,1.49-24.82,2.56-36.51,2.99v-1c13.12-.62,27.58-2.62,41-4Z"/>
  <path class="cls-9" d="M302.97,231.46c-6.86.46-14.05,1.41-21,2-.75.06-.93.99-1,1-1.97.17-4.03-.16-6,0-.74.06-.93.99-1,1-5.97.49-12.2.51-18,1l.64-.83c13.47-.74,27.64-4.25,40.92-5.19,1.92-.14,3.78-.03,5.45,1.03Z"/>
  <path class="cls-4" d="M235.97,593.46c1.33.03,2.67-.03,4,0l-1.07,25.35-1.58,1.5-6.34.15c.95-.26,5.93-2.15,6.05-2.65-.6-7.38.26-14.72.84-21.91.03-.43-2.7-.47-1.89-2.43Z"/>
  <path class="cls-9" d="M358.97,567.46c-9.88,6.07-20.83,9.96-32.01,13.02.23,1.48.85,2.58.75,4.19-.6,8.96-2.72,21-4.74,29.79-1.86-1.04-.9-3.59-.71-5.19,1.18-10.07,3.39-20.1,4.62-30.17l32.09-11.64Z"/>
  <path class="cls-7" d="M149.97,504.46c-2.08,1.07-6.05,4-8.5,4h-17.5l.02,1.98,2.95,2.53-.97.49c-1.22-1.81-4.29-3.86-4-6.99,9.69,1.91,18.59.45,28-2.01Z"/>
  <path class="cls-9" d="M133.97,794.46c-.78,1.83-6.81-1.56-7.29-1.94-3.36-2.71-1.23-23.7-.71-29.06h1c-.03.25.92,1.37.82,2.45-.56,5.58-3.01,19.26-1.62,23.86.87,2.92,5.49,3.69,7.81,4.69Z"/>
  <path class="cls-9" d="M149.97,648.46c4.57,1.88,7.6,5.04,13.51,4.99l16.49-3.99c-9.96,4.62-21.83,9.36-30-1Z"/>
  <path class="cls-8" d="M124.97,434.46c3.16-2.2,4.33-4.48,8.94-5.55,5.87-1.37,3.86-.41,5.06,1.55-5.1-.71-9.53,2.04-14,4Z"/>
  <path class="cls-16" d="M226.97,489.46c-.13-.01-1,1.14-2.41,1.05-2.73-.17-9.07-.81-8.59-4.05,3.51.73,7.33,2.47,11,3Z"/>
  <path class="cls-16" d="M178.97,466.46c1.03-.18,2.22-.06,3.27.02,9.34,9.09,19.92,14.74,31.73,19.98-15.94-3.88-17.84-9.83-30.27-17.28-1.39-.83-3.15-1.38-4.73-1.72v-1Z"/>
  <path class="cls-4" d="M315.97,147.46c-4.51-.35-9.83.58-14-2,4.51.19,10.01.24,14,2Z"/>
  <path class="cls-8" d="M95.97,431.46l1.02,3,4.98-2c-2.03,1.52-2.26,4.25-7,2.99-.94-1.91.99-3.79,1-3.99Z"/>
  <path class="cls-9" d="M148.97,648.46c.04,1.89-.28,3.92-2,5,.2-2.09.3-3.99,1.02-6,.79-.23.79.95.98,1Z"/>
  <path class="cls-8" d="M130.97,257.46c-2.15,3.51-4.78,7-6,11-.63.1-1.35-.04-1.99,0l.68-2.73,7.31-8.26Z"/>
  <path class="cls-3" d="M282.97,755.46c-.36,1.57-.41,3.06-2,4,.15-1.31-.13-2.69,0-4.01h2Z"/>
  <path class="cls-3" d="M277.97,773.46c.56-4.28.33-9.39,3-13-.66,4.21-1.26,9.11-3,13Z"/>
  <path class="cls-8" d="M339.97,430.46c.12.28-.11.7,0,1l-5-2c2.37-.79,2.81-.31,5,1Z"/>
  <path class="cls-8" d="M89.97,478.46c-.72-.41-3.03.04-4.77-2.24l.77-.76c.98.87,3.46.99,4,3Z"/>
  <path class="cls-4" d="M338.97,151.46c-2.97-.25-6.57.05-9-2,2.81.5,6.58.16,9,2Z"/>
  <path class="cls-4" d="M322.97,148.46c-1.6-.06-4.15.62-5-1,2.14.2,4.12.9,5,1Z"/>
  <path class="cls-4" d="M328.97,149.46c-1.6-.06-4.15.62-5-1,2.24.26,3.52.73,5,1Z"/>
  <path class="cls-16" d="M301.97,477.46c-.16.2.34,1.5-.1,1.88-.61.54-2.42-.14-2.9.12.49-1.4,1.53-1.99,3-2Z"/>
  <path class="cls-8" d="M136.97,249.46c0,2.09-2.66,3.39-4,5,2.26-3.63,1.77-2.79,4-5Z"/>
  <path class="cls-4" d="M343.97,151.46c-.32,1.5-3.59,1.56-4,0,1.28.14,2.78-.19,4,0Z"/>
  <path class="cls-16" d="M315.97,462.46l-2.64,5.74-3.36,2.26c1.73-2.09,4.61-5.81,6-8Z"/>
  <path class="cls-8" d="M328.97,472.46c-1.12,2.72-3.23,3.98-5,6,.13-2.53,2.52-5.82,5-6Z"/>
  <path class="cls-8" d="M145.97,238.46c-2.42,3.61-5.02,6.86-8,10,1.06-4,5.36-7.1,8-10Z"/>
  <path class="cls-16" d="M302.97,476.46c1.68-1.76,4.06-3.47,6-5-1.69,1.96-3.01,4.82-6,5Z"/>
  <path class="cls-12" d="M330.26,300.15c-1.57-1.28-3.92-5.21-6.27-7.21-19-16.11-42.24-14.21-63.03-3-5.81,3.13-13.74,12.5-20.03,6.07-5.16-5.28,3.36-11.96,7.58-15.52,15.98-13.49,39.61-21.81,60.25-16.31,13.22,3.52,31.38,17.4,29.27,32.83-.61,4.42-4.2,6.05-7.76,3.15Z"/>
  <path class="cls-12" d="M272.71,329.7c20.14-3.43,37.49,19.15,28.46,36.46-7.24,13.87-13.75-8.84-23.72-8.73-9.09.1-18.22,19.17-24.36,10.41-8.72-12.44,5.08-35.66,19.62-38.14Z"/>
  <path class="cls-12" d="M456.73,367.72c7.68-1.04,24.71,6.52,19.76,14.75-3.61,6-17.53-5.45-25.95,6.05-6.12,8.36-4.52,29.03-18.58,26.44-3.52-2.09-.44-17.54.46-21.56,2.63-11.67,11.8-23.99,24.31-25.69Z"/>
  <path class="cls-13" d="M130.97,331.46c4.9-1.31,10.02-1.57,14,2,.19.17,2.66,3.51,3,4,.22.32.73.58,1,1-1.71,2.92.6,7.01.62,10.33.03,6.09-2.09,12.25-4.62,17.67-.32.34-.64.71-1,1-16.48,7.39-20.28-6.87-18.99-20.49.49-5.19,3.22-8.63,3.99-13.51.75-.88,1-1.26,2-2Z"/>
  <path class="cls-12" d="M319.76,374.66c4.5-.34,9.09,2.46,12.15,5.43-.3,9.01-22.27,7.57-23.01.85-.42-3.9,7.76-6.04,10.86-6.28Z"/>
  <path class="cls-12" d="M318.97,368.45c-.73-8.21,21.06-10.97,21.05-3.48,0,4.53-17.43,5.27-21.05,3.48Z"/>
  <path class="cls-7" d="M235.97,239.46c.56,3.06-1.53,1.89-3.46,2-15.33.85-30.68,1.52-46.09,1-1.93-.06-4.01,1.02-3.45-2,19.18,1.57,34.07.21,53-1Z"/>
  <path class="cls-8" d="M143.97,367.46c-.53.43-.71,1.73-2.03,2.43-18.15,9.61-24.42-22.89-12.97-36.43-.77,4.88-3.49,8.32-3.99,13.51-1.3,13.62,2.5,27.88,18.99,20.49Z"/>
  <path class="cls-8" d="M144.97,366.46c2.53-5.42,4.65-11.58,4.62-17.67-.02-3.32-2.33-7.42-.62-10.33,3.51,5.36,2.45,18.36-.44,24.06-1.24,2.45-2.19,2.49-3.56,3.94Z"/>
  <path class="cls-8" d="M130.97,331.46c5.12-3.81,7.72-3.97,13.3-.01.86.61.58,1.88.7,2.01.28.31,3.05.44,3,4-.34-.49-2.81-3.83-3-4-3.98-3.57-9.1-3.31-14-2Z"/>
  <path class="cls-13" d="M210.72,665.65c18.26-3.49,13.67,31.68-2.18,30.8-14.31-.79-10.83-28.32,2.18-30.8Z"/>
  <path class="cls-8" d="M273.97,235.46c.07,0,.26-.94,1-1l-1,1Z"/>
  <path class="cls-8" d="M280.97,234.46c.07,0,.25-.94,1-1l-1,1Z"/>
</svg>